<svg xmlns="http://www.w3.org/2000/svg" xmlns:xlink="http://www.w3.org/1999/xlink" width="500" height="500" viewBox="0 0 500 500">
  <defs>
    <clipPath id="clip-time_svg3">
      <rect width="500" height="500"/>
    </clipPath>
  </defs>
  <g id="time_svg3" clip-path="url(#clip-time_svg3)">
    <rect width="500" height="500" fill="#fff"/>
    <g id="BACKGROUND">
      <rect id="Rectangle_854" data-name="Rectangle 854" width="500" height="500" fill="#fff"/>
    </g>
    <g id="OBJECT">
      <g id="Group_319" data-name="Group 319">
        <g id="Group_268" data-name="Group 268">
          <line id="Line_76" data-name="Line 76" x2="22.458" transform="translate(401.819 410.626)" fill="none" stroke="#1f2f6d" stroke-linecap="round" stroke-linejoin="round" stroke-width="4"/>
          <line id="Line_77" data-name="Line 77" x2="17.384" transform="translate(435.124 410.626)" fill="none" stroke="#1f2f6d" stroke-linecap="round" stroke-linejoin="round" stroke-width="4"/>
          <line id="Line_78" data-name="Line 78" x1="318.407" transform="translate(70.581 410.626)" fill="none" stroke="#1f2f6d" stroke-linecap="round" stroke-linejoin="round" stroke-width="4"/>
          <line id="Line_79" data-name="Line 79" x1="11.774" transform="translate(47.491 410.626)" fill="none" stroke="#1f2f6d" stroke-linecap="round" stroke-linejoin="round" stroke-width="4"/>
        </g>
        <g id="Group_318" data-name="Group 318">
          <g id="Group_269" data-name="Group 269">
            <path id="Path_1322" data-name="Path 1322" d="M344.7,105.568A158.286,158.286,0,0,0,246.9,71.928" fill="none" stroke="#1f2f6d" stroke-linecap="round" stroke-linejoin="round" stroke-width="3" stroke-dasharray="2.1 6.3 5.25 9.45"/>
            <path id="Path_1323" data-name="Path 1323" d="M405.871,230.9a158.63,158.63,0,0,0-56.254-121.337" fill="none" stroke="#1f2f6d" stroke-linecap="round" stroke-linejoin="round" stroke-width="3"/>
          </g>
          <circle id="Ellipse_86" data-name="Ellipse 86" cx="143.865" cy="143.865" r="143.865" transform="translate(100.571 87.364)" fill="#ffe1d9"/>
          <g id="Group_270" data-name="Group 270" style="mix-blend-mode: multiply;isolation: isolate">
            <circle id="Ellipse_87" data-name="Ellipse 87" cx="118.17" cy="118.17" r="118.17" transform="translate(83.1 234.665) rotate(-45)" fill="#ffd7cc"/>
            <path id="Path_1324" data-name="Path 1324" d="M455.88,311.69v-2.561a1.924,1.924,0,0,0-1.923-1.924h-5.368v-4.326a1.177,1.177,0,0,0-1.177-1.176h-8.819a1.177,1.177,0,0,0-1.177,1.176V307.2h-5.367a1.924,1.924,0,0,0-1.924,1.924v2.561H412v81.279h62.013V311.69ZM441.862,303h2.282a1.176,1.176,0,0,1,0,2.353h-2.282a1.176,1.176,0,1,1,0-2.353Z" fill="#ffd7cc"/>
            <circle id="Ellipse_88" data-name="Ellipse 88" cx="23.179" cy="23.179" r="23.179" transform="translate(332.712 351.448) rotate(-9.217)" fill="#ffd7cc"/>
            <circle id="Ellipse_89" data-name="Ellipse 89" cx="23.179" cy="23.179" r="23.179" transform="matrix(0.383, -0.924, 0.924, 0.383, 404.51, 270.379)" fill="#ffd7cc"/>
            <circle id="Ellipse_90" data-name="Ellipse 90" cx="23.179" cy="23.179" r="23.179" transform="translate(51.501 159.739)" fill="#ffd7cc"/>
            <circle id="Ellipse_91" data-name="Ellipse 91" cx="23.179" cy="23.179" r="23.179" transform="translate(154.755 114.201) rotate(-80.782)" fill="#ffd7cc"/>
            <circle id="Ellipse_92" data-name="Ellipse 92" cx="12.184" cy="12.184" r="12.184" transform="translate(119.244 139.713)" fill="#ffd7cc"/>
            <circle id="Ellipse_93" data-name="Ellipse 93" cx="15.101" cy="15.101" r="15.101" transform="matrix(0.993, -0.122, 0.122, 0.993, 360.566, 288.56)" fill="#ffd7cc"/>
            <path id="Path_1325" data-name="Path 1325" d="M126.022,121.314V64.194a5.528,5.528,0,0,0-5.527-5.527h-1.813v-2.79a1.789,1.789,0,0,0-1.79-1.79H116.4a1.789,1.789,0,0,0-1.79,1.79v2.79h-3.485v-2.79a1.789,1.789,0,0,0-1.79-1.79h-.491a1.789,1.789,0,0,0-1.79,1.79v2.79H103.57v-2.79a1.79,1.79,0,0,0-1.79-1.79h-.491a1.79,1.79,0,0,0-1.791,1.79v2.79H96.014v-2.79a1.79,1.79,0,0,0-1.79-1.79h-.491a1.789,1.789,0,0,0-1.79,1.79v2.79H88.458v-2.79a1.79,1.79,0,0,0-1.791-1.79h-.49a1.79,1.79,0,0,0-1.791,1.79v2.79H80.9v-2.79a1.79,1.79,0,0,0-1.791-1.79H78.62a1.79,1.79,0,0,0-1.79,1.79v2.79H73.345v-2.79a1.789,1.789,0,0,0-1.79-1.79h-.491a1.79,1.79,0,0,0-1.79,1.79v2.79H65.789v-2.79A1.789,1.789,0,0,0,64,54.087h-.491a1.79,1.79,0,0,0-1.79,1.79v2.79H58.233v-2.79a1.789,1.789,0,0,0-1.79-1.79h-.491a1.789,1.789,0,0,0-1.79,1.79v2.79H50.677v-2.79a1.789,1.789,0,0,0-1.79-1.79H48.4a1.789,1.789,0,0,0-1.79,1.79v2.79H43.121v-2.79a1.79,1.79,0,0,0-1.79-1.79H40.84a1.789,1.789,0,0,0-1.79,1.79v2.79H37.237a5.527,5.527,0,0,0-5.527,5.527v57.12a5.527,5.527,0,0,0,5.527,5.528H120.5A5.528,5.528,0,0,0,126.022,121.314Z" fill="#ffd7cc"/>
          </g>
          <g id="Group_271" data-name="Group 271">
            <path id="Path_1326" data-name="Path 1326" d="M144.964,356.316a158.292,158.292,0,0,0,97.808,33.64" fill="none" stroke="#1f2f6d" stroke-linecap="round" stroke-linejoin="round" stroke-width="3" stroke-dasharray="2.1 6.3 5.25 9.45"/>
            <path id="Path_1327" data-name="Path 1327" d="M83.8,230.982a158.63,158.63,0,0,0,56.254,121.336" fill="none" stroke="#1f2f6d" stroke-linecap="round" stroke-linejoin="round" stroke-width="3"/>
          </g>
          <g id="Group_276" data-name="Group 276">
            <circle id="Ellipse_94" data-name="Ellipse 94" cx="118.17" cy="118.17" r="118.17" transform="translate(126.328 113.064)" fill="#1f2f6d"/>
            <circle id="Ellipse_95" data-name="Ellipse 95" cx="108.44" cy="108.44" r="108.44" transform="translate(136.058 122.794)" fill="#fff" stroke="#1f2f6d" stroke-miterlimit="10" stroke-width="1"/>
            <path id="Path_1328" data-name="Path 1328" d="M244.5,231.234,189.848,324.9a108.555,108.555,0,0,1-53.79-93.662q0-.328,0-.658Z" fill="#a1b3ff" stroke="#1f2f6d" stroke-miterlimit="10" stroke-width="1"/>
            <path id="Path_1329" data-name="Path 1329" d="M244.5,231.234l-.514-108.439h.514c59.489,0,108.44,48.952,108.44,108.44Z" fill="#f66" stroke="#1f2f6d" stroke-miterlimit="10" stroke-width="1"/>
            <path id="Path_1330" data-name="Path 1330" d="M244.5,231.234h108.44c0,59.488-48.951,108.44-108.44,108.44A108.441,108.441,0,0,1,190,324.983Z" fill="#4dc7b8" stroke="#1f2f6d" stroke-miterlimit="10" stroke-width="1"/>
            <path id="Path_1331" data-name="Path 1331" d="M244.5,231.234h108.44A108.454,108.454,0,0,1,338.956,284.5Z" fill="#ffc773" stroke="#1f2f6d" stroke-miterlimit="10" stroke-width="1"/>
            <g id="Group_272" data-name="Group 272">
              <path id="Path_1332" data-name="Path 1332" d="M246.213,228.272l-43.7-25.229a3.421,3.421,0,0,0-3.42,5.925l43.7,25.229Z" fill="#1f2f6d"/>
            </g>
            <g id="Group_273" data-name="Group 273">
              <path id="Path_1333" data-name="Path 1333" d="M316.242,191.792a1.711,1.711,0,0,0-1.711-2.963l-70.886,40.928,1.71,2.961Z" fill="#1f2f6d"/>
            </g>
            <path id="Path_1334" data-name="Path 1334" d="M241.079,237.16a6.842,6.842,0,1,1,9.346-2.505A6.844,6.844,0,0,1,241.079,237.16Z" fill="#1f2f6d"/>
            <path id="Path_1335" data-name="Path 1335" d="M266.736,217.345a.856.856,0,0,1,1.17.309h0a.856.856,0,0,1-.309,1.169L173.481,273.6a.856.856,0,0,1-1.169-.308h0a.855.855,0,0,1,.309-1.17Z" fill="#b53e44"/>
            <path id="Path_1336" data-name="Path 1336" d="M242.791,234.2a3.42,3.42,0,1,1,4.672-1.253A3.42,3.42,0,0,1,242.791,234.2Z" fill="#f66"/>
            <g id="Group_274" data-name="Group 274">
              <path id="Path_1337" data-name="Path 1337" d="M233.816,129.582a.423.423,0,0,0-.377.465l.358,3.4a.423.423,0,0,0,.842-.088l-.358-3.4A.423.423,0,0,0,233.816,129.582Z" fill="#1f2f6d"/>
              <path id="Path_1338" data-name="Path 1338" d="M223.751,131.582a.423.423,0,1,0-.828.176l.712,3.346a.423.423,0,0,0,.828-.176Z" fill="#1f2f6d"/>
              <path id="Path_1339" data-name="Path 1339" d="M213.448,134.3a.424.424,0,0,0-.806.262l1.058,3.253a.424.424,0,0,0,.806-.261Z" fill="#1f2f6d"/>
              <path id="Path_1340" data-name="Path 1340" d="M203.486,138.073a.423.423,0,1,0-.774.344l1.391,3.126a.424.424,0,0,0,.774-.345Z" fill="#1f2f6d"/>
              <path id="Path_1341" data-name="Path 1341" d="M185.012,148.635a.424.424,0,1,0-.686.5l2.011,2.767a.424.424,0,0,0,.686-.5Z" fill="#1f2f6d"/>
              <path id="Path_1342" data-name="Path 1342" d="M176.7,155.3a.424.424,0,0,0-.63.567l2.29,2.542a.423.423,0,1,0,.629-.566Z" fill="#1f2f6d"/>
              <path id="Path_1343" data-name="Path 1343" d="M169.138,162.808a.423.423,0,1,0-.566.63l2.542,2.288a.423.423,0,1,0,.567-.629Z" fill="#1f2f6d"/>
              <path id="Path_1344" data-name="Path 1344" d="M162.4,171.06a.424.424,0,0,0-.5.686l2.767,2.01a.424.424,0,0,0,.5-.686Z" fill="#1f2f6d"/>
              <path id="Path_1345" data-name="Path 1345" d="M154.807,190.836l-3.126-1.392a.424.424,0,1,0-.344.774l3.125,1.391a.423.423,0,0,0,.345-.773Z" fill="#1f2f6d"/>
              <path id="Path_1346" data-name="Path 1346" d="M147.56,200.181l3.254,1.057a.424.424,0,0,0,.261-.806l-3.253-1.057a.424.424,0,1,0-.262.806Z" fill="#1f2f6d"/>
              <path id="Path_1347" data-name="Path 1347" d="M144.845,210.483l3.347.712a.424.424,0,0,0,.176-.829l-3.347-.711a.423.423,0,0,0-.176.828Z" fill="#1f2f6d"/>
              <path id="Path_1348" data-name="Path 1348" d="M143.222,221.014l3.4.358a.424.424,0,1,0,.089-.843l-3.4-.358a.424.424,0,0,0-.088.843Z" fill="#1f2f6d"/>
              <path id="Path_1349" data-name="Path 1349" d="M147.089,241.469a.423.423,0,0,0-.465-.376l-3.4.358a.423.423,0,1,0,.088.841l3.4-.357A.424.424,0,0,0,147.089,241.469Z" fill="#1f2f6d"/>
              <path id="Path_1350" data-name="Path 1350" d="M148.693,251.6a.425.425,0,0,0-.5-.327l-3.346.711a.424.424,0,0,0,.176.829l3.347-.711A.424.424,0,0,0,148.693,251.6Z" fill="#1f2f6d"/>
              <path id="Path_1351" data-name="Path 1351" d="M151.346,261.5a.423.423,0,0,0-.534-.272l-3.254,1.058a.423.423,0,1,0,.262.8l3.254-1.058A.423.423,0,0,0,151.346,261.5Z" fill="#1f2f6d"/>
              <path id="Path_1352" data-name="Path 1352" d="M154.46,270.855l-3.126,1.392a.424.424,0,0,0,.345.774l3.125-1.392a.423.423,0,1,0-.344-.774Z" fill="#1f2f6d"/>
              <path id="Path_1353" data-name="Path 1353" d="M164.665,288.71l-2.768,2.01a.423.423,0,0,0,.5.685l2.768-2.01a.423.423,0,0,0-.5-.685Z" fill="#1f2f6d"/>
              <path id="Path_1354" data-name="Path 1354" d="M171.11,296.74l-2.543,2.288a.423.423,0,0,0,.567.629l2.542-2.287a.423.423,0,0,0-.566-.63Z" fill="#1f2f6d"/>
              <path id="Path_1355" data-name="Path 1355" d="M178.359,304.051l-2.29,2.542a.424.424,0,1,0,.63.567l2.289-2.541a.424.424,0,1,0-.629-.568Z" fill="#1f2f6d"/>
              <path id="Path_1356" data-name="Path 1356" d="M186.333,310.566l-2.011,2.767a.423.423,0,1,0,.684.5l2.011-2.767a.423.423,0,1,0-.684-.5Z" fill="#1f2f6d"/>
              <path id="Path_1357" data-name="Path 1357" d="M204.657,320.712a.424.424,0,0,0-.56.214l-1.391,3.124a.423.423,0,1,0,.773.346l1.392-3.125A.424.424,0,0,0,204.657,320.712Z" fill="#1f2f6d"/>
              <path id="Path_1358" data-name="Path 1358" d="M214.228,324.386a.423.423,0,0,0-.534.271l-1.057,3.253a.423.423,0,0,0,.805.262l1.058-3.253A.423.423,0,0,0,214.228,324.386Z" fill="#1f2f6d"/>
              <path id="Path_1359" data-name="Path 1359" d="M224.131,327.041a.425.425,0,0,0-.5.326l-.711,3.344a.424.424,0,0,0,.829.177l.711-3.344A.424.424,0,0,0,224.131,327.041Z" fill="#1f2f6d"/>
              <path id="Path_1360" data-name="Path 1360" d="M234.256,328.645a.423.423,0,0,0-.465.376l-.358,3.4a.423.423,0,1,0,.842.089l.358-3.4A.423.423,0,0,0,234.256,328.645Z" fill="#1f2f6d"/>
              <path id="Path_1361" data-name="Path 1361" d="M254.733,328.646a.423.423,0,0,0-.378.464l.357,3.4a.423.423,0,0,0,.842-.087l-.357-3.4A.422.422,0,0,0,254.733,328.646Z" fill="#1f2f6d"/>
              <path id="Path_1362" data-name="Path 1362" d="M265.361,327.37a.424.424,0,1,0-.829.175l.709,3.345a.424.424,0,1,0,.829-.175Z" fill="#1f2f6d"/>
              <path id="Path_1363" data-name="Path 1363" d="M275.294,324.662a.423.423,0,0,0-.8.261l1.057,3.254a.423.423,0,0,0,.805-.262Z" fill="#1f2f6d"/>
              <path id="Path_1364" data-name="Path 1364" d="M284.892,320.931a.423.423,0,0,0-.774.344l1.39,3.124a.424.424,0,1,0,.774-.344Z" fill="#1f2f6d"/>
              <path id="Path_1365" data-name="Path 1365" d="M302.659,310.572a.423.423,0,0,0-.685.5l2.009,2.767a.423.423,0,0,0,.685-.5Z" fill="#1f2f6d"/>
              <path id="Path_1366" data-name="Path 1366" d="M310.633,304.058a.423.423,0,0,0-.629.566l2.286,2.542a.423.423,0,1,0,.63-.566Z" fill="#1f2f6d"/>
              <path id="Path_1367" data-name="Path 1367" d="M317.882,296.745a.423.423,0,1,0-.567.629l2.541,2.291a.424.424,0,0,0,.567-.63Z" fill="#1f2f6d"/>
              <path id="Path_1368" data-name="Path 1368" d="M324.329,288.716a.423.423,0,1,0-.5.685l2.765,2.011a.423.423,0,0,0,.5-.685Z" fill="#1f2f6d"/>
              <path id="Path_1369" data-name="Path 1369" d="M337.658,272.254l-3.121-1.393a.424.424,0,1,0-.345.774l3.121,1.393a.424.424,0,1,0,.345-.774Z" fill="#1f2f6d"/>
              <path id="Path_1370" data-name="Path 1370" d="M341.435,262.292l-3.25-1.059a.423.423,0,1,0-.263.8l3.25,1.06a.423.423,0,0,0,.263-.8Z" fill="#1f2f6d"/>
              <path id="Path_1371" data-name="Path 1371" d="M344.151,251.989l-3.344-.714a.423.423,0,0,0-.177.828l3.344.714a.423.423,0,0,0,.177-.828Z" fill="#1f2f6d"/>
              <path id="Path_1372" data-name="Path 1372" d="M345.774,241.459l-3.4-.361a.423.423,0,1,0-.089.842l3.4.361a.423.423,0,0,0,.089-.842Z" fill="#1f2f6d"/>
              <path id="Path_1373" data-name="Path 1373" d="M341.91,221a.423.423,0,0,0,.465.378l3.4-.354a.424.424,0,0,0-.088-.843l-3.4.354A.423.423,0,0,0,341.91,221Z" fill="#1f2f6d"/>
              <path id="Path_1374" data-name="Path 1374" d="M340.306,210.873a.424.424,0,0,0,.5.327l3.344-.708a.424.424,0,0,0-.175-.829l-3.345.709A.422.422,0,0,0,340.306,210.873Z" fill="#1f2f6d"/>
              <path id="Path_1375" data-name="Path 1375" d="M337.651,200.97a.425.425,0,0,0,.534.272l3.253-1.053a.423.423,0,1,0-.26-.806l-3.254,1.053A.426.426,0,0,0,337.651,200.97Z" fill="#1f2f6d"/>
              <path id="Path_1376" data-name="Path 1376" d="M334.537,191.613l3.125-1.387a.424.424,0,1,0-.344-.774l-3.125,1.388a.423.423,0,1,0,.344.773Z" fill="#1f2f6d"/>
              <path id="Path_1377" data-name="Path 1377" d="M326.6,171.066l-2.768,2.007a.423.423,0,1,0,.5.686l2.768-2.007a.423.423,0,1,0-.5-.686Z" fill="#1f2f6d"/>
              <path id="Path_1378" data-name="Path 1378" d="M319.864,162.813l-2.543,2.286a.423.423,0,1,0,.566.63l2.543-2.286a.423.423,0,0,0-.566-.63Z" fill="#1f2f6d"/>
              <path id="Path_1379" data-name="Path 1379" d="M312.3,155.31l-2.292,2.54a.423.423,0,0,0,.629.567l2.292-2.539a.424.424,0,0,0-.629-.568Z" fill="#1f2f6d"/>
              <path id="Path_1380" data-name="Path 1380" d="M303.992,148.639l-2.013,2.765a.424.424,0,1,0,.685.5l2.012-2.765a.423.423,0,1,0-.684-.5Z" fill="#1f2f6d"/>
              <path id="Path_1381" data-name="Path 1381" d="M286.077,137.86a.422.422,0,0,0-.559.214l-1.394,3.124a.424.424,0,0,0,.774.345l1.393-3.124A.423.423,0,0,0,286.077,137.86Z" fill="#1f2f6d"/>
              <path id="Path_1382" data-name="Path 1382" d="M276.09,134.025a.424.424,0,0,0-.534.271l-1.06,3.252a.423.423,0,0,0,.8.263l1.06-3.252A.422.422,0,0,0,276.09,134.025Z" fill="#1f2f6d"/>
              <path id="Path_1383" data-name="Path 1383" d="M265.754,131.255a.424.424,0,0,0-.5.326l-.713,3.345a.423.423,0,1,0,.828.177l.713-3.345A.424.424,0,0,0,265.754,131.255Z" fill="#1f2f6d"/>
              <path id="Path_1384" data-name="Path 1384" d="M255.187,129.58a.423.423,0,0,0-.465.377l-.36,3.4a.423.423,0,0,0,.842.09l.36-3.4A.424.424,0,0,0,255.187,129.58Z" fill="#1f2f6d"/>
            </g>
            <g id="Group_275" data-name="Group 275">
              <path id="Path_1385" data-name="Path 1385" d="M343.075,233.832a3,3,0,1,1,4.1-1.1A3,3,0,0,1,343.075,233.832Z" fill="#1f2f6d"/>
              <path id="Path_1386" data-name="Path 1386" d="M331.167,184.2a3,3,0,1,1,3-3A3,3,0,0,1,331.167,184.2Z" fill="#1f2f6d"/>
              <path id="Path_1387" data-name="Path 1387" d="M296.037,147.164a3,3,0,1,1,1.1-4.1A3,3,0,0,1,296.037,147.164Z" fill="#1f2f6d"/>
              <path id="Path_1388" data-name="Path 1388" d="M247.1,132.66a3,3,0,1,1-1.1-4.1A3,3,0,0,1,247.1,132.66Z" fill="#1f2f6d"/>
              <path id="Path_1389" data-name="Path 1389" d="M197.462,144.567a3,3,0,1,1-3-3A3,3,0,0,1,197.462,144.567Z" fill="#1f2f6d"/>
              <path id="Path_1390" data-name="Path 1390" d="M160.429,179.7a3,3,0,1,1-4.1-1.1A3,3,0,0,1,160.429,179.7Z" fill="#1f2f6d"/>
              <path id="Path_1391" data-name="Path 1391" d="M145.924,228.637a3,3,0,1,1-4.1,1.1A3,3,0,0,1,145.924,228.637Z" fill="#1f2f6d"/>
              <path id="Path_1392" data-name="Path 1392" d="M157.833,278.271a3,3,0,1,1-3,3A3,3,0,0,1,157.833,278.271Z" fill="#1f2f6d"/>
              <path id="Path_1393" data-name="Path 1393" d="M192.962,315.3a3,3,0,1,1-1.1,4.1A3,3,0,0,1,192.962,315.3Z" fill="#1f2f6d"/>
              <path id="Path_1394" data-name="Path 1394" d="M241.9,329.808a3,3,0,1,1,1.1,4.1A3.005,3.005,0,0,1,241.9,329.808Z" fill="#1f2f6d"/>
              <path id="Path_1395" data-name="Path 1395" d="M291.536,317.9a3,3,0,1,1,3,3A3,3,0,0,1,291.536,317.9Z" fill="#1f2f6d"/>
              <path id="Path_1396" data-name="Path 1396" d="M328.566,282.768a3,3,0,1,1,4.1,1.1A3,3,0,0,1,328.566,282.768Z" fill="#1f2f6d"/>
            </g>
          </g>
          <g id="Group_291" data-name="Group 291">
            <rect id="Rectangle_855" data-name="Rectangle 855" width="81.279" height="62.013" transform="translate(468.29 308.259) rotate(90)" fill="#a1b3ff" stroke="#6579cf" stroke-miterlimit="10" stroke-width="1"/>
            <rect id="Rectangle_856" data-name="Rectangle 856" width="57.076" height="76.341" transform="translate(408.745 310.728)" fill="#fff" stroke="#7a90eb" stroke-miterlimit="10" stroke-width="1"/>
            <g id="Group_289" data-name="Group 289">
              <g id="Group_279" data-name="Group 279">
                <rect id="Rectangle_857" data-name="Rectangle 857" width="10.584" height="10.584" transform="translate(412.314 321.297)" fill="none" stroke="#1f2f6d" stroke-linecap="round" stroke-linejoin="round" stroke-width="1"/>
                <g id="Group_277" data-name="Group 277">
                  <rect id="Rectangle_858" data-name="Rectangle 858" width="35.695" height="2.64" transform="translate(426.558 321.161)" fill="#dee1ef"/>
                  <rect id="Rectangle_859" data-name="Rectangle 859" width="31.242" height="2.64" transform="translate(426.558 325.269)" fill="#dee1ef"/>
                  <rect id="Rectangle_860" data-name="Rectangle 860" width="26.789" height="2.64" transform="translate(426.558 329.377)" fill="#dee1ef"/>
                </g>
                <g id="Group_278" data-name="Group 278">
                  <path id="Path_1397" data-name="Path 1397" d="M417.541,329.9a1.159,1.159,0,0,1-.91-.441l-2.571-3.246a1.161,1.161,0,1,1,1.821-1.442L417.4,326.7l5-8.425a1.161,1.161,0,0,1,2,1.185l-5.857,9.877a1.162,1.162,0,0,1-.921.566Z" fill="#4dc7b8"/>
                </g>
              </g>
              <g id="Group_282" data-name="Group 282">
                <rect id="Rectangle_861" data-name="Rectangle 861" width="10.584" height="10.584" transform="translate(412.314 337.766)" fill="none" stroke="#1f2f6d" stroke-linecap="round" stroke-linejoin="round" stroke-width="1"/>
                <g id="Group_280" data-name="Group 280">
                  <rect id="Rectangle_862" data-name="Rectangle 862" width="35.695" height="2.64" transform="translate(426.558 337.63)" fill="#dee1ef"/>
                  <rect id="Rectangle_863" data-name="Rectangle 863" width="31.242" height="2.64" transform="translate(426.558 341.738)" fill="#dee1ef"/>
                  <rect id="Rectangle_864" data-name="Rectangle 864" width="26.789" height="2.64" transform="translate(426.558 345.846)" fill="#dee1ef"/>
                </g>
                <g id="Group_281" data-name="Group 281">
                  <path id="Path_1398" data-name="Path 1398" d="M417.541,346.37a1.161,1.161,0,0,1-.91-.44l-2.571-3.247a1.161,1.161,0,1,1,1.821-1.441l1.522,1.923,5-8.426a1.161,1.161,0,0,1,2,1.185L418.54,345.8a1.16,1.16,0,0,1-.921.566Z" fill="#4dc7b8"/>
                </g>
              </g>
              <g id="Group_285" data-name="Group 285">
                <rect id="Rectangle_865" data-name="Rectangle 865" width="10.584" height="10.584" transform="translate(412.314 354.236)" fill="none" stroke="#1f2f6d" stroke-linecap="round" stroke-linejoin="round" stroke-width="1"/>
                <g id="Group_283" data-name="Group 283">
                  <rect id="Rectangle_866" data-name="Rectangle 866" width="35.695" height="2.64" transform="translate(426.558 354.099)" fill="#dee1ef"/>
                  <rect id="Rectangle_867" data-name="Rectangle 867" width="31.242" height="2.64" transform="translate(426.558 358.207)" fill="#dee1ef"/>
                  <rect id="Rectangle_868" data-name="Rectangle 868" width="26.789" height="2.64" transform="translate(426.558 362.315)" fill="#dee1ef"/>
                </g>
                <g id="Group_284" data-name="Group 284">
                  <path id="Path_1399" data-name="Path 1399" d="M417.541,362.839a1.161,1.161,0,0,1-.91-.44l-2.571-3.247a1.161,1.161,0,1,1,1.821-1.441l1.522,1.923,5-8.425a1.161,1.161,0,1,1,2,1.184l-5.857,9.878a1.165,1.165,0,0,1-.921.566C417.593,362.839,417.567,362.839,417.541,362.839Z" fill="#4dc7b8"/>
                </g>
              </g>
              <g id="Group_288" data-name="Group 288">
                <rect id="Rectangle_869" data-name="Rectangle 869" width="10.584" height="10.584" transform="translate(412.314 370.705)" fill="none" stroke="#1f2f6d" stroke-linecap="round" stroke-linejoin="round" stroke-width="1"/>
                <g id="Group_286" data-name="Group 286">
                  <rect id="Rectangle_870" data-name="Rectangle 870" width="35.695" height="2.64" transform="translate(426.558 370.569)" fill="#dee1ef"/>
                  <rect id="Rectangle_871" data-name="Rectangle 871" width="31.242" height="2.64" transform="translate(426.558 374.677)" fill="#dee1ef"/>
                  <rect id="Rectangle_872" data-name="Rectangle 872" width="26.789" height="2.64" transform="translate(426.558 378.785)" fill="#dee1ef"/>
                </g>
                <g id="Group_287" data-name="Group 287">
                  <path id="Path_1400" data-name="Path 1400" d="M417.541,379.309a1.159,1.159,0,0,1-.91-.441l-2.571-3.246a1.161,1.161,0,1,1,1.821-1.442L417.4,376.1l5-8.425a1.161,1.161,0,0,1,2,1.185l-5.857,9.877a1.162,1.162,0,0,1-.921.566Q417.58,379.309,417.541,379.309Z" fill="#4dc7b8"/>
                </g>
              </g>
            </g>
            <g id="Group_290" data-name="Group 290">
              <path id="Path_1401" data-name="Path 1401" d="M431.7,299.448v7.8a1.176,1.176,0,0,0,1.176,1.177h8.819a1.177,1.177,0,0,0,1.177-1.177v-7.8a1.176,1.176,0,0,0-1.177-1.176h-8.819A1.175,1.175,0,0,0,431.7,299.448Zm6.727,2.469h-2.282a1.176,1.176,0,0,1-1.177-1.176h0a1.176,1.176,0,0,1,1.177-1.176h2.282a1.176,1.176,0,0,1,1.177,1.176h0A1.176,1.176,0,0,1,438.425,301.917Z" fill="#1f2f6d"/>
              <rect id="Rectangle_873" data-name="Rectangle 873" width="25.756" height="9.29" rx="1.924" transform="translate(424.406 303.774)" fill="#1f2f6d"/>
            </g>
          </g>
          <g id="Group_304" data-name="Group 304">
            <circle id="Ellipse_96" data-name="Ellipse 96" cx="23.179" cy="23.179" r="23.179" transform="translate(330.406 344.004)" fill="#4dc7b8" stroke="#31897c" stroke-miterlimit="10" stroke-width="1"/>
            <g id="Group_303" data-name="Group 303">
              <g id="Group_301" data-name="Group 301">
                <g id="Group_298" data-name="Group 298">
                  <g id="Group_293" data-name="Group 293">
                    <g id="Group_292" data-name="Group 292">
                      <path id="Path_1402" data-name="Path 1402" d="M346.274,366.421A7.31,7.31,0,1,1,359.284,371a8.7,8.7,0,0,0-1.963,5.443v.136h-7.472v-.136a8.442,8.442,0,0,0-1.907-5.374A7.274,7.274,0,0,1,346.274,366.421Z" fill="#fce001"/>
                    </g>
                  </g>
                  <g id="Group_295" data-name="Group 295">
                    <g id="Group_294" data-name="Group 294">
                      <path id="Path_1403" data-name="Path 1403" d="M353.9,376.569h.422V370.7a1,1,0,1,1,1,1h-.478v.422h.478A1.425,1.425,0,1,0,353.9,370.7Z" fill="#fca701"/>
                    </g>
                  </g>
                  <g id="Group_297" data-name="Group 297">
                    <g id="Group_296" data-name="Group 296">
                      <path id="Path_1404" data-name="Path 1404" d="M352.822,376.569h.422V370.7a1.425,1.425,0,1,0-1.425,1.425h.478V371.7h-.478a1,1,0,1,1,1-1Z" fill="#fca701"/>
                    </g>
                  </g>
                </g>
                <g id="Group_299" data-name="Group 299">
                  <path id="Rectangle_874" data-name="Rectangle 874" d="M1.763,0H5.645A1.763,1.763,0,0,1,7.407,1.763V5.014a0,0,0,0,1,0,0H0a0,0,0,0,1,0,0V1.763A1.763,1.763,0,0,1,1.763,0Z" transform="translate(357.288 381.559) rotate(180)" fill="#1f2f6d"/>
                </g>
                <g id="Group_300" data-name="Group 300">
                  <path id="Rectangle_875" data-name="Rectangle 875" d="M.776,0h2.75A.776.776,0,0,1,4.3.776v.809a0,0,0,0,1,0,0H0a0,0,0,0,1,0,0V.776A.776.776,0,0,1,.776,0Z" transform="translate(355.736 383.039) rotate(180)" fill="#1f2f6d"/>
                </g>
              </g>
              <g id="Group_302" data-name="Group 302">
                <line id="Line_80" data-name="Line 80" x2="5.02" y2="2.631" transform="translate(362.647 369.96)" fill="none" stroke="#1f2f6d" stroke-linecap="round" stroke-linejoin="round" stroke-width="1"/>
                <line id="Line_81" data-name="Line 81" y1="1.675" x2="5.684" transform="translate(364.221 362.45)" fill="none" stroke="#1f2f6d" stroke-linecap="round" stroke-linejoin="round" stroke-width="1"/>
                <line id="Line_82" data-name="Line 82" y1="4.925" x2="2.636" transform="translate(361.376 354.025)" fill="none" stroke="#1f2f6d" stroke-linecap="round" stroke-linejoin="round" stroke-width="1"/>
                <line id="Line_83" data-name="Line 83" y1="5.81" transform="translate(353.979 351.327)" fill="none" stroke="#1f2f6d" stroke-linecap="round" stroke-linejoin="round" stroke-width="1"/>
                <line id="Line_84" data-name="Line 84" x1="5.02" y2="2.631" transform="translate(338.69 369.96)" fill="none" stroke="#1f2f6d" stroke-linecap="round" stroke-linejoin="round" stroke-width="1"/>
                <line id="Line_85" data-name="Line 85" x1="5.684" y1="1.675" transform="translate(337.265 362.45)" fill="none" stroke="#1f2f6d" stroke-linecap="round" stroke-linejoin="round" stroke-width="1"/>
                <line id="Line_86" data-name="Line 86" x1="2.636" y1="4.925" transform="translate(343.97 354.025)" fill="none" stroke="#1f2f6d" stroke-linecap="round" stroke-linejoin="round" stroke-width="1"/>
              </g>
            </g>
          </g>
          <g id="Group_307" data-name="Group 307">
            <circle id="Ellipse_97" data-name="Ellipse 97" cx="23.179" cy="23.179" r="23.179" transform="translate(398.791 241.859) rotate(-22.5)" fill="#fce001" stroke="#ad6800" stroke-miterlimit="10" stroke-width="1"/>
            <g id="Group_306" data-name="Group 306">
              <g id="Group_305" data-name="Group 305">
                <path id="Path_1405" data-name="Path 1405" d="M429.075,241.693a8.2,8.2,0,0,0-8.208,8.2c0,4.531,7.665,16.858,7.665,16.858a.579.579,0,0,0,1.072,0s7.68-12.339,7.68-16.858a8.214,8.214,0,0,0-8.209-8.2Zm0,2.42a4.664,4.664,0,1,1-4.671,4.658,4.655,4.655,0,0,1,4.671-4.658Z" fill="#1f2f6d" fill-rule="evenodd"/>
              </g>
            </g>
          </g>
          <g id="Group_310" data-name="Group 310">
            <circle id="Ellipse_98" data-name="Ellipse 98" cx="23.179" cy="23.179" r="23.179" transform="translate(36.181 179.487) rotate(-45)" fill="#a1b3ff" stroke="#6579cf" stroke-miterlimit="10" stroke-width="1"/>
            <g id="Group_309" data-name="Group 309">
              <path id="Path_1406" data-name="Path 1406" d="M72.034,181.874a6.233,6.233,0,0,1,3.435-2.572,3.663,3.663,0,1,1,3.545.009,6.355,6.355,0,0,1,4.437,6.052V187.3a1.283,1.283,0,0,1-1.284,1.283H72.33a1.282,1.282,0,0,1-1.283-1.283v-1.891A6.392,6.392,0,0,1,72.034,181.874Z" fill="#fff"/>
              <g id="Group_308" data-name="Group 308">
                <path id="Path_1407" data-name="Path 1407" d="M54.408,181.874a6.233,6.233,0,0,1,3.435-2.572,3.663,3.663,0,1,1,3.545.009,6.355,6.355,0,0,1,4.437,6.052V187.3a1.283,1.283,0,0,1-1.284,1.283H54.7a1.283,1.283,0,0,1-1.283-1.283v-1.891A6.391,6.391,0,0,1,54.408,181.874Z" fill="#fff"/>
              </g>
              <path id="Path_1408" data-name="Path 1408" d="M63.262,178.877a7.664,7.664,0,0,1,3.171-1.862,4.566,4.566,0,1,1,4.418.011,7.921,7.921,0,0,1,5.53,7.543v2.42a1.6,1.6,0,0,1-1.6,1.6H62.521a1.6,1.6,0,0,1-1.6-1.6v-2.572A7.669,7.669,0,0,1,63.262,178.877Z" fill="#1f2f6d"/>
            </g>
          </g>
          <g id="Group_312" data-name="Group 312">
            <circle id="Ellipse_99" data-name="Ellipse 99" cx="23.179" cy="23.179" r="23.179" transform="matrix(0.23, -0.973, 0.973, 0.23, 147.744, 108.836)" fill="#f66" stroke="#b53e44" stroke-miterlimit="10" stroke-width="1"/>
            <g id="Group_311" data-name="Group 311">
              <path id="Path_1409" data-name="Path 1409" d="M166.1,97.468h1.641V89.622c0-5.05,3.359-7.761,6.962-8.152V78.637a.919.919,0,0,1,.926-.907.9.9,0,0,1,.9.907V81.47c3.614.391,6.964,3.113,6.964,8.152v7.846h1.644a.531.531,0,0,1,.524.529v2.783a.53.53,0,0,1-.524.528H179.8a4.168,4.168,0,1,1-8.337,0h-5.346a.525.525,0,0,1-.527-.528V98A.518.518,0,0,1,166.1,97.468Z" fill="#fce001" fill-rule="evenodd"/>
            </g>
          </g>
          <g id="Group_313" data-name="Group 313">
            <circle id="Ellipse_100" data-name="Ellipse 100" cx="12.184" cy="12.184" r="12.184" transform="translate(113.525 136.281)" fill="#4dc7b8" stroke="#31897c" stroke-miterlimit="10" stroke-width="1"/>
            <path id="Path_1410" data-name="Path 1410" d="M123.891,153.945l-4.432-2.855a.971.971,0,0,1-.294-1.381l.394-.591a.961.961,0,0,1,1.283-.295l3.352,2.166,5.906-7.782a.965.965,0,0,1,1.382-.2l.591.394a.959.959,0,0,1,.1,1.379l-6.8,8.965a.93.93,0,0,1-1.081.294.772.772,0,0,1-.4-.1Z" fill="#fff" fill-rule="evenodd"/>
          </g>
          <g id="Group_314" data-name="Group 314">
            <circle id="Ellipse_101" data-name="Ellipse 101" cx="15.101" cy="15.101" r="15.101" transform="translate(351.95 290.099) rotate(-22.5)" fill="#ee5a30" stroke="#b53e44" stroke-miterlimit="10" stroke-width="1"/>
            <path id="Path_1411" data-name="Path 1411" d="M376.787,305.722l-5.166-5.17-5.168,5.054-2.116-2.114,5.167-5.17-5.167-5.056,2.235-2.232,5.049,5.17,5.166-5.17,2.121,2.118-5.058,5.17,5.174,5.17Z" fill="#fff"/>
          </g>
          <g id="Group_317" data-name="Group 317">
            <rect id="Rectangle_876" data-name="Rectangle 876" width="94.312" height="68.174" rx="5.527" transform="translate(25.991 55.236)" fill="#a1b3ff" stroke="#6579cf" stroke-miterlimit="10" stroke-width="1"/>
            <g id="Group_315" data-name="Group 315">
              <rect id="Rectangle_877" data-name="Rectangle 877" width="10.313" height="10.313" transform="translate(30.97 72.119)" fill="#fff" stroke="#6579cf" stroke-miterlimit="10" stroke-width="1"/>
              <rect id="Rectangle_878" data-name="Rectangle 878" width="10.313" height="10.313" transform="translate(43.31 72.119)" fill="#fff" stroke="#6579cf" stroke-miterlimit="10" stroke-width="1"/>
              <rect id="Rectangle_879" data-name="Rectangle 879" width="10.313" height="10.313" transform="translate(55.65 72.119)" fill="#fff" stroke="#6579cf" stroke-miterlimit="10" stroke-width="1"/>
              <rect id="Rectangle_880" data-name="Rectangle 880" width="10.313" height="10.313" transform="translate(67.99 72.119)" fill="#fff" stroke="#6579cf" stroke-miterlimit="10" stroke-width="1"/>
              <rect id="Rectangle_881" data-name="Rectangle 881" width="10.313" height="10.313" transform="translate(80.33 72.119)" fill="#fff" stroke="#6579cf" stroke-miterlimit="10" stroke-width="1"/>
              <rect id="Rectangle_882" data-name="Rectangle 882" width="10.313" height="10.313" transform="translate(92.671 72.119)" fill="#fff" stroke="#6579cf" stroke-miterlimit="10" stroke-width="1"/>
              <rect id="Rectangle_883" data-name="Rectangle 883" width="10.313" height="10.313" transform="translate(105.011 72.119)" fill="#f66" stroke="#b53e44" stroke-miterlimit="10" stroke-width="1"/>
              <rect id="Rectangle_884" data-name="Rectangle 884" width="10.313" height="4.06" transform="translate(30.97 66.087)" fill="#fce001" stroke="#f2a446" stroke-miterlimit="10" stroke-width="1"/>
              <rect id="Rectangle_885" data-name="Rectangle 885" width="10.313" height="4.06" transform="translate(43.31 66.087)" fill="#fce001" stroke="#f2a446" stroke-miterlimit="10" stroke-width="1"/>
              <rect id="Rectangle_886" data-name="Rectangle 886" width="10.313" height="4.06" transform="translate(55.65 66.087)" fill="#fce001" stroke="#f2a446" stroke-miterlimit="10" stroke-width="1"/>
              <rect id="Rectangle_887" data-name="Rectangle 887" width="10.313" height="4.06" transform="translate(67.99 66.087)" fill="#fce001" stroke="#f2a446" stroke-miterlimit="10" stroke-width="1"/>
              <rect id="Rectangle_888" data-name="Rectangle 888" width="10.313" height="4.06" transform="translate(80.33 66.087)" fill="#fce001" stroke="#f2a446" stroke-miterlimit="10" stroke-width="1"/>
              <rect id="Rectangle_889" data-name="Rectangle 889" width="10.313" height="4.06" transform="translate(92.671 66.087)" fill="#fce001" stroke="#f2a446" stroke-miterlimit="10" stroke-width="1"/>
              <rect id="Rectangle_890" data-name="Rectangle 890" width="10.313" height="4.06" transform="translate(105.011 66.087)" fill="#fce001" stroke="#f2a446" stroke-miterlimit="10" stroke-width="1"/>
              <rect id="Rectangle_891" data-name="Rectangle 891" width="10.313" height="10.313" transform="translate(30.97 84.248)" fill="#fff" stroke="#6579cf" stroke-miterlimit="10" stroke-width="1"/>
              <rect id="Rectangle_892" data-name="Rectangle 892" width="10.313" height="10.313" transform="translate(43.31 84.248)" fill="#fff" stroke="#6579cf" stroke-miterlimit="10" stroke-width="1"/>
              <rect id="Rectangle_893" data-name="Rectangle 893" width="10.313" height="10.313" transform="translate(55.65 84.248)" fill="#fff" stroke="#6579cf" stroke-miterlimit="10" stroke-width="1"/>
              <rect id="Rectangle_894" data-name="Rectangle 894" width="10.313" height="10.313" transform="translate(67.99 84.248)" fill="#fff" stroke="#6579cf" stroke-miterlimit="10" stroke-width="1"/>
              <rect id="Rectangle_895" data-name="Rectangle 895" width="10.313" height="10.313" transform="translate(80.33 84.248)" fill="#fff" stroke="#6579cf" stroke-miterlimit="10" stroke-width="1"/>
              <rect id="Rectangle_896" data-name="Rectangle 896" width="10.313" height="10.313" transform="translate(92.671 84.248)" fill="#fff" stroke="#6579cf" stroke-miterlimit="10" stroke-width="1"/>
              <rect id="Rectangle_897" data-name="Rectangle 897" width="10.313" height="10.313" transform="translate(105.011 84.248)" fill="#f66" stroke="#b53e44" stroke-miterlimit="10" stroke-width="1"/>
              <rect id="Rectangle_898" data-name="Rectangle 898" width="10.313" height="10.313" transform="translate(30.97 96.377)" fill="#fff" stroke="#6579cf" stroke-miterlimit="10" stroke-width="1"/>
              <rect id="Rectangle_899" data-name="Rectangle 899" width="10.313" height="10.313" transform="translate(43.31 96.377)" fill="#fff" stroke="#6579cf" stroke-miterlimit="10" stroke-width="1"/>
              <rect id="Rectangle_900" data-name="Rectangle 900" width="10.313" height="10.313" transform="translate(55.65 96.377)" fill="#fff" stroke="#6579cf" stroke-miterlimit="10" stroke-width="1"/>
              <rect id="Rectangle_901" data-name="Rectangle 901" width="10.313" height="10.313" transform="translate(67.99 96.377)" fill="#fff" stroke="#6579cf" stroke-miterlimit="10" stroke-width="1"/>
              <rect id="Rectangle_902" data-name="Rectangle 902" width="10.313" height="10.313" transform="translate(80.33 96.377)" fill="#fff" stroke="#6579cf" stroke-miterlimit="10" stroke-width="1"/>
              <rect id="Rectangle_903" data-name="Rectangle 903" width="10.313" height="10.313" transform="translate(92.671 96.377)" fill="#fff" stroke="#6579cf" stroke-miterlimit="10" stroke-width="1"/>
              <rect id="Rectangle_904" data-name="Rectangle 904" width="10.313" height="10.313" transform="translate(105.011 96.377)" fill="#f66" stroke="#b53e44" stroke-miterlimit="10" stroke-width="1"/>
              <rect id="Rectangle_905" data-name="Rectangle 905" width="10.313" height="10.313" transform="translate(30.97 108.507)" fill="#fff" stroke="#6579cf" stroke-miterlimit="10" stroke-width="1"/>
              <rect id="Rectangle_906" data-name="Rectangle 906" width="10.313" height="10.313" transform="translate(43.31 108.507)" fill="#fff" stroke="#6579cf" stroke-miterlimit="10" stroke-width="1"/>
              <rect id="Rectangle_907" data-name="Rectangle 907" width="10.313" height="10.313" transform="translate(55.65 108.507)" fill="#fff" stroke="#6579cf" stroke-miterlimit="10" stroke-width="1"/>
              <rect id="Rectangle_908" data-name="Rectangle 908" width="10.313" height="10.313" transform="translate(67.99 108.507)" fill="#fff" stroke="#6579cf" stroke-miterlimit="10" stroke-width="1"/>
              <rect id="Rectangle_909" data-name="Rectangle 909" width="10.313" height="10.313" transform="translate(80.33 108.507)" fill="#fff" stroke="#6579cf" stroke-miterlimit="10" stroke-width="1"/>
              <rect id="Rectangle_910" data-name="Rectangle 910" width="10.313" height="10.313" transform="translate(92.671 108.507)" fill="#fff" stroke="#6579cf" stroke-miterlimit="10" stroke-width="1"/>
              <rect id="Rectangle_911" data-name="Rectangle 911" width="10.313" height="10.313" transform="translate(105.011 108.507)" fill="#f66" stroke="#b53e44" stroke-miterlimit="10" stroke-width="1"/>
            </g>
            <path id="Path_1412" data-name="Path 1412" d="M37.787,79.663l-1.68-1.681-1.681,1.643-.688-.687,1.68-1.681-1.68-1.644.727-.726,1.642,1.681,1.68-1.681.69.689-1.645,1.681,1.682,1.681Z" fill="#f66"/>
            <path id="Path_1413" data-name="Path 1413" d="M74.807,91.809l-1.68-1.681-1.681,1.643-.688-.687,1.68-1.681-1.68-1.644.727-.726,1.642,1.681,1.68-1.681.69.689L73.853,89.4l1.682,1.681Z" fill="#f66"/>
            <path id="Path_1414" data-name="Path 1414" d="M50.127,103.922l-1.68-1.681-1.681,1.643-.688-.687,1.68-1.681-1.68-1.644.727-.726,1.642,1.681,1.68-1.681.69.689-1.645,1.681,1.682,1.681Z" fill="#f66"/>
            <g id="Group_316" data-name="Group 316">
              <rect id="Rectangle_912" data-name="Rectangle 912" width="4.071" height="9.888" rx="1.79" transform="translate(33.331 50.655)" fill="#266193" stroke="#1f2f6d" stroke-miterlimit="10" stroke-width="1"/>
              <rect id="Rectangle_913" data-name="Rectangle 913" width="4.071" height="9.888" rx="1.79" transform="translate(40.887 50.655)" fill="#266193" stroke="#1f2f6d" stroke-miterlimit="10" stroke-width="1"/>
              <rect id="Rectangle_914" data-name="Rectangle 914" width="4.071" height="9.888" rx="1.79" transform="translate(48.443 50.655)" fill="#266193" stroke="#1f2f6d" stroke-miterlimit="10" stroke-width="1"/>
              <rect id="Rectangle_915" data-name="Rectangle 915" width="4.071" height="9.888" rx="1.79" transform="translate(55.999 50.655)" fill="#266193" stroke="#1f2f6d" stroke-miterlimit="10" stroke-width="1"/>
              <rect id="Rectangle_916" data-name="Rectangle 916" width="4.071" height="9.888" rx="1.79" transform="translate(63.555 50.655)" fill="#266193" stroke="#1f2f6d" stroke-miterlimit="10" stroke-width="1"/>
              <rect id="Rectangle_917" data-name="Rectangle 917" width="4.071" height="9.888" rx="1.79" transform="translate(71.111 50.655)" fill="#266193" stroke="#1f2f6d" stroke-miterlimit="10" stroke-width="1"/>
              <rect id="Rectangle_918" data-name="Rectangle 918" width="4.071" height="9.888" rx="1.79" transform="translate(78.667 50.655)" fill="#266193" stroke="#1f2f6d" stroke-miterlimit="10" stroke-width="1"/>
              <rect id="Rectangle_919" data-name="Rectangle 919" width="4.071" height="9.888" rx="1.79" transform="translate(86.223 50.655)" fill="#266193" stroke="#1f2f6d" stroke-miterlimit="10" stroke-width="1"/>
              <rect id="Rectangle_920" data-name="Rectangle 920" width="4.071" height="9.888" rx="1.79" transform="translate(93.78 50.655)" fill="#266193" stroke="#1f2f6d" stroke-miterlimit="10" stroke-width="1"/>
              <rect id="Rectangle_921" data-name="Rectangle 921" width="4.071" height="9.888" rx="1.79" transform="translate(101.336 50.655)" fill="#266193" stroke="#1f2f6d" stroke-miterlimit="10" stroke-width="1"/>
              <rect id="Rectangle_922" data-name="Rectangle 922" width="4.071" height="9.888" rx="1.79" transform="translate(108.892 50.655)" fill="#266193" stroke="#1f2f6d" stroke-miterlimit="10" stroke-width="1"/>
            </g>
          </g>
        </g>
      </g>
    </g>
    <g id="DESIGNED_BY_FREEPIK" data-name="DESIGNED BY FREEPIK">
      <g id="Group_323" data-name="Group 323">
        <g id="Group_321" data-name="Group 321">
          <g id="Group_320" data-name="Group 320">
            <path id="Path_1415" data-name="Path 1415" d="M260.1,465.465A7.568,7.568,0,0,0,259,466.918l-.465-.241a.6.6,0,1,0-.519.732.553.553,0,0,0,.183-.052l.451.235a7.389,7.389,0,0,0-.539,1.743l.748.132a6.6,6.6,0,0,1,1.791-3.473Z" fill="#a5b7c6"/>
            <path id="Path_1416" data-name="Path 1416" d="M265.592,463.163c-.172,0-.342.006-.51.017l-.074-.626a.716.716,0,1,0-.752.087l.072.624a7.617,7.617,0,0,0-2.059.645l.326.685a6.985,6.985,0,0,1,4.471-.516l.16-.741A7.718,7.718,0,0,0,265.592,463.163Z" fill="#a5b7c6"/>
            <path id="Path_1417" data-name="Path 1417" d="M272.193,465.71a.6.6,0,1,0-.676-.589l-.416.363a7.714,7.714,0,0,0-1.408-1.139l-.4.641a6.748,6.748,0,0,1,2.564,2.925l.69-.312a7.359,7.359,0,0,0-.942-1.545l.4-.351A.568.568,0,0,0,272.193,465.71Z" fill="#a5b7c6"/>
            <path id="Path_1418" data-name="Path 1418" d="M265.045,473.371c-.387.024-.776.035-1.158.035a16.053,16.053,0,0,1-2.479-.179,8.579,8.579,0,0,1-1.269-.292,6.193,6.193,0,0,0,11.337-1.378,9.716,9.716,0,0,1-2.459,1.122A16.981,16.981,0,0,1,265.045,473.371Z" fill="#a5b7c6"/>
            <path id="Path_1419" data-name="Path 1419" d="M265.592,464.68a6.02,6.02,0,0,0-6.08,5.943,5.918,5.918,0,0,0,.136,1.261c.674.483,2.707.89,5.348.731,2.881-.174,5.3-.958,6.672-2.159a5.345,5.345,0,0,0-.045-.581A6.038,6.038,0,0,0,265.592,464.68Zm-2.161,6.514a1.85,1.85,0,1,1,1.85-1.849A1.852,1.852,0,0,1,263.431,471.194Zm4.739-.908a1.361,1.361,0,1,1,1.359-1.36A1.363,1.363,0,0,1,268.17,470.286Z" fill="#a5b7c6"/>
          </g>
          <path id="Path_1420" data-name="Path 1420" d="M281.6,466.547a2.808,2.808,0,0,0-1.382-.238c-.551.069-.844.34-.844,1.006v.867H281.6V469.9h-2.228v5.455h-1.932V469.9H276.1v-1.716h1.34v-.889a2.461,2.461,0,0,1,2.569-2.782,3.946,3.946,0,0,1,1.589.307Z" fill="#a5b7c6"/>
          <path id="Path_1421" data-name="Path 1421" d="M286.3,469.878a3.3,3.3,0,0,0-.526-.046,1.434,1.434,0,0,0-1.509,1.613v3.908H282.33v-7.171H284.2v.784a2.262,2.262,0,0,1,2.019-.977,1.791,1.791,0,0,1,1.094.337Z" fill="#a5b7c6"/>
          <path id="Path_1422" data-name="Path 1422" d="M293.965,471.757a5.574,5.574,0,0,1-.038.651h-5.084a1.731,1.731,0,0,0,1.842,1.488,2.9,2.9,0,0,0,1.815-.689l1.133,1.243a4.357,4.357,0,0,1-3.059,1.089,3.777,3.777,0,0,1-.1-7.55A3.467,3.467,0,0,1,293.965,471.757Zm-5.116-.666h3.176a1.6,1.6,0,0,0-3.176,0Z" fill="#a5b7c6"/>
          <path id="Path_1423" data-name="Path 1423" d="M301.619,471.757a5.823,5.823,0,0,1-.037.651H296.5a1.732,1.732,0,0,0,1.844,1.488,2.894,2.894,0,0,0,1.812-.689l1.133,1.243a4.352,4.352,0,0,1-3.057,1.089,3.777,3.777,0,0,1-.1-7.55A3.467,3.467,0,0,1,301.619,471.757Zm-5.115-.666h3.175a1.6,1.6,0,0,0-3.175,0Z" fill="#a5b7c6"/>
          <path id="Path_1424" data-name="Path 1424" d="M309.963,471.764a3.553,3.553,0,0,1-3.471,3.775,2.625,2.625,0,0,1-2.109-.933v3.709h-1.924V468.182h1.886v.792a2.6,2.6,0,0,1,2.139-.985A3.555,3.555,0,0,1,309.963,471.764Zm-5.676,0a1.851,1.851,0,1,0,1.842-1.976A1.841,1.841,0,0,0,304.287,471.764Z" fill="#a5b7c6"/>
          <path id="Path_1425" data-name="Path 1425" d="M313.066,465.835a1.232,1.232,0,1,1-1.234-1.243A1.213,1.213,0,0,1,313.066,465.835Zm-.258,9.518h-1.931v-7.171h1.931Z" fill="#a5b7c6"/>
          <path id="Path_1426" data-name="Path 1426" d="M316.031,470.735l2.7-2.553H321.1l-3.478,3.375,3.5,3.8h-2.377l-2.717-2.9v2.9H314.1V464.7h1.932Z" fill="#a5b7c6"/>
        </g>
        <g id="Group_322" data-name="Group 322">
          <path id="Path_1427" data-name="Path 1427" d="M184.412,475.289v-1.055a2.977,2.977,0,0,1-2.387,1.231c-1.846,0-3.15-1.406-3.15-3.706,0-2.256,1.289-3.721,3.15-3.721a2.957,2.957,0,0,1,2.387,1.245v-3.764h1.1v9.77Zm0-1.919v-3.208a2.655,2.655,0,0,0-2.124-1.142c-1.421,0-2.27,1.171-2.27,2.739s.849,2.724,2.27,2.724A2.631,2.631,0,0,0,184.412,473.37Z" fill="#a5b7c6"/>
          <path id="Path_1428" data-name="Path 1428" d="M186.931,471.744a3.538,3.538,0,0,1,3.487-3.706c2.138,0,3.4,1.67,3.4,3.794v.278h-5.727a2.493,2.493,0,0,0,2.549,2.447,3.093,3.093,0,0,0,2.182-.894l.527.718a3.843,3.843,0,0,1-2.812,1.084A3.509,3.509,0,0,1,186.931,471.744Zm3.472-2.8a2.36,2.36,0,0,0-2.314,2.359h4.643A2.293,2.293,0,0,0,190.4,468.946Z" fill="#a5b7c6"/>
          <path id="Path_1429" data-name="Path 1429" d="M194.607,474.352l.571-.792a3.2,3.2,0,0,0,2.329,1.011c1.084,0,1.67-.512,1.67-1.216,0-1.713-4.38-.659-4.38-3.281,0-1.1.952-2.036,2.636-2.036a3.578,3.578,0,0,1,2.623,1.026l-.513.761a2.757,2.757,0,0,0-2.11-.893c-.966,0-1.567.483-1.567,1.113,0,1.553,4.38.527,4.38,3.281,0,1.187-.952,2.139-2.783,2.139A3.765,3.765,0,0,1,194.607,474.352Z" fill="#a5b7c6"/>
          <path id="Path_1430" data-name="Path 1430" d="M201.477,466.471a.74.74,0,1,1,1.479,0,.74.74,0,0,1-1.479,0Zm.19,8.818v-7.075h1.1v7.075Z" fill="#a5b7c6"/>
          <path id="Path_1431" data-name="Path 1431" d="M204.582,477.105l.556-.82a2.7,2.7,0,0,0,2.3.967,2.025,2.025,0,0,0,2.27-2.124v-1.011a2.954,2.954,0,0,1-2.373,1.26c-1.846,0-3.149-1.377-3.149-3.662s1.289-3.677,3.149-3.677a2.932,2.932,0,0,1,2.373,1.245v-1.069h1.1v6.87c0,2.344-1.641,3.076-3.369,3.076A3.613,3.613,0,0,1,204.582,477.105Zm5.126-3.852v-3.091a2.606,2.606,0,0,0-2.109-1.142c-1.421,0-2.27,1.127-2.27,2.7s.849,2.7,2.27,2.7A2.619,2.619,0,0,0,209.708,473.253Z" fill="#a5b7c6"/>
          <path id="Path_1432" data-name="Path 1432" d="M217.413,475.289V470.66c0-1.245-.63-1.64-1.582-1.64a2.733,2.733,0,0,0-2.1,1.1v5.171h-1.1v-7.075h1.1v1.025a3.51,3.51,0,0,1,2.52-1.2,2.011,2.011,0,0,1,2.256,2.285v4.966Z" fill="#a5b7c6"/>
          <path id="Path_1433" data-name="Path 1433" d="M219.932,471.744a3.538,3.538,0,0,1,3.486-3.706c2.139,0,3.4,1.67,3.4,3.794v.278H221.09a2.492,2.492,0,0,0,2.548,2.447,3.1,3.1,0,0,0,2.183-.894l.527.718a3.844,3.844,0,0,1-2.813,1.084A3.508,3.508,0,0,1,219.932,471.744Zm3.472-2.8a2.36,2.36,0,0,0-2.314,2.359h4.643A2.294,2.294,0,0,0,223.4,468.946Z" fill="#a5b7c6"/>
          <path id="Path_1434" data-name="Path 1434" d="M233.35,475.289v-1.055a2.979,2.979,0,0,1-2.388,1.231c-1.846,0-3.149-1.406-3.149-3.706,0-2.256,1.288-3.721,3.149-3.721a2.959,2.959,0,0,1,2.388,1.245v-3.764h1.1v9.77Zm0-1.919v-3.208a2.657,2.657,0,0,0-2.124-1.142c-1.421,0-2.271,1.171-2.271,2.739s.85,2.724,2.271,2.724A2.633,2.633,0,0,0,233.35,473.37Z" fill="#a5b7c6"/>
          <path id="Path_1435" data-name="Path 1435" d="M239.692,475.289v-9.77h1.1v3.764a2.938,2.938,0,0,1,2.388-1.245c1.845,0,3.149,1.465,3.149,3.721,0,2.3-1.3,3.706-3.149,3.706a2.98,2.98,0,0,1-2.388-1.231v1.055Zm3.208-.806c1.435,0,2.285-1.157,2.285-2.724s-.85-2.739-2.285-2.739a2.629,2.629,0,0,0-2.11,1.142v3.208A2.6,2.6,0,0,0,242.9,474.483Z" fill="#a5b7c6"/>
          <path id="Path_1436" data-name="Path 1436" d="M247.528,477.061a1.67,1.67,0,0,0,.6.118,1.017,1.017,0,0,0,1.054-.747l.469-1.07-2.959-7.148h1.187l2.358,5.8,2.344-5.8h1.2l-3.545,8.511a2.1,2.1,0,0,1-2.08,1.435,3.549,3.549,0,0,1-.806-.1Z" fill="#a5b7c6"/>
        </g>
      </g>
    </g>
  </g>
</svg>
