<svg xmlns="http://www.w3.org/2000/svg" xmlns:xlink="http://www.w3.org/1999/xlink" width="500" height="500" viewBox="0 0 500 500">
  <defs>
    <clipPath id="clip-time_svg1">
      <rect width="500" height="500"/>
    </clipPath>
  </defs>
  <g id="time_svg1" clip-path="url(#clip-time_svg1)">
    <rect width="500" height="500" fill="#fff"/>
    <g id="Layer_2" data-name="Layer 2">
      <path id="Path_1180" data-name="Path 1180" d="M267.473,36.6c57.146-1.4,109.32,22.131,138.947,61.017,59.566,78.183,70.6,156.306,30.635,197.368A136.79,136.79,0,0,1,369.7,331.48c-56.8,11.876-81.51-23.517-128.466-14.406-62.141,12.058-68.749,83.719-110.51,85.866C90.869,404.989,47.238,342.28,40.8,283.083,29.652,180.6,125.8,50.367,252.054,37.572Q259.89,36.778,267.473,36.6Z" fill="#94c8e3" opacity="0.18"/>
      <path id="Path_1181" data-name="Path 1181" d="M151.094,126c3.763,20.539-7.439,39.948-24.582,45.77-15.886,5.4-37.414-1.869-38.705-9.579-.486-2.908,1.663-7.409,3.92-7.625,1.493-.143,3.209,1.572,3.676,3.346,1.085,4.127-4.254,9.865-8.966,11.543-7.174,2.555-17.187-2.774-24.713-13.432" fill="none" stroke="#abbac2" stroke-miterlimit="10" stroke-width="1" stroke-dasharray="6"/>
      <path id="Path_1182" data-name="Path 1182" d="M395.151,65.444c19.585,7.244,30.561,26.781,26.821,44.5-3.466,16.416-20.7,31.224-27.987,28.4-2.749-1.065-5.523-5.211-4.558-7.262.639-1.356,2.99-1.958,4.754-1.454,4.1,1.172,6.313,8.692,5.352,13.6-1.463,7.474-11.155,13.366-24.161,14.4" fill="none" stroke="#abbac2" stroke-miterlimit="10" stroke-width="1" stroke-dasharray="6"/>
    </g>
    <g id="Layer_1" data-name="Layer 1">
      <g id="Group_242" data-name="Group 242">
        <path id="Path_1183" data-name="Path 1183" d="M140.19,90.265s-19.135,71.107-17.154,74.432,48.841,20.222,64.044,8.1c0,0-1.147-11.111.409-20.031S199.264,100.7,199.264,100.7Z" fill="#fff"/>
        <path id="Path_1184" data-name="Path 1184" d="M176.82,174.3a17.191,17.191,0,0,0,7.662-8.772" fill="none" stroke="#abbac2" stroke-miterlimit="10" stroke-width="1"/>
        <g id="Group_241" data-name="Group 241">
          <path id="Path_1185" data-name="Path 1185" d="M145.4,102.367s29.811,7.746,42.271,8" fill="none" stroke="#abbac2" stroke-miterlimit="10" stroke-width="1"/>
          <path id="Path_1186" data-name="Path 1186" d="M144.155,110.661s29.811,7.746,42.272,8" fill="none" stroke="#abbac2" stroke-miterlimit="10" stroke-width="1"/>
          <path id="Path_1187" data-name="Path 1187" d="M142.91,118.955s29.811,7.746,42.272,8" fill="none" stroke="#abbac2" stroke-miterlimit="10" stroke-width="1"/>
          <path id="Path_1188" data-name="Path 1188" d="M141.665,127.249s29.811,7.746,42.271,8" fill="none" stroke="#abbac2" stroke-miterlimit="10" stroke-width="1"/>
          <path id="Path_1189" data-name="Path 1189" d="M140.419,135.543s29.811,7.746,42.272,8" fill="none" stroke="#abbac2" stroke-miterlimit="10" stroke-width="1"/>
          <path id="Path_1190" data-name="Path 1190" d="M139.174,143.837s29.811,7.746,42.271,8" fill="none" stroke="#abbac2" stroke-miterlimit="10" stroke-width="1"/>
          <path id="Path_1191" data-name="Path 1191" d="M137.928,152.131s29.812,7.746,42.272,8" fill="none" stroke="#abbac2" stroke-miterlimit="10" stroke-width="1"/>
        </g>
      </g>
      <g id="Group_243" data-name="Group 243">
        <path id="Path_1192" data-name="Path 1192" d="M402.618,263.33s18.771-17.1,16.246-25.627,1.795-17.981-4.03-28.272-8.475-8.546-22.168-11.024-15.8-9.936-27.935-.606c-11.895,9.148-9.322,14.863,5.708,16.206,9,.8,20.072-1.794,21.105,14.558A77.778,77.778,0,0,0,402.618,263.33Z" fill="#7fc991"/>
        <path id="Path_1193" data-name="Path 1193" d="M410.435,300.276c-4.543-3.332,1.176-16.366,9.922-22.612,6.042-4.315,11.14.525,19.833-4.985,6.14-3.891,6.316-8.029,10.868-8.476,5.378-.527,6.775,5.087,14.924,7.75,7.844,2.562,10.321-1.408,15.051,1.218,8.676,4.815,12.845,25.108,6.567,30.426-3.841,3.254-10.917-8.754-20.435-6.051-4.743,1.347-5.025,4.761-9.677,5.376-6.517.86-9.041-5.432-15.558-7.335C429.335,291.909,415.514,304,410.435,300.276Z" fill="#7fc991"/>
        <path id="Path_1194" data-name="Path 1194" d="M367.063,387.407c7.849-25.526,23.75-67.324,38.432-84.393,23.755-27.614,50.187-25.494,50.187-25.494" fill="none" stroke="#40635b" stroke-miterlimit="10" stroke-width="1"/>
        <path id="Path_1195" data-name="Path 1195" d="M379.348,340.953c30.225-101.307,36.7-116.127,28.248-124.5" fill="none" stroke="#40635b" stroke-miterlimit="10" stroke-width="1"/>
        <path id="Path_1196" data-name="Path 1196" d="M383.418,349.648s.845-21.188,7.747-23.93,10.876-10.451,20.635-11.936,9.98,1.156,18.668,8.865,14.672,5.249,14.805,18.024c.13,12.525-4.948,13.783-13.581,4.61-5.167-5.49-9.174-14.1-20.439-6.344A64.175,64.175,0,0,1,383.418,349.648Z" fill="#7fc991"/>
        <path id="Path_1197" data-name="Path 1197" d="M369.78,388.066c5.837-22.469,16.637-52.049,34.641-63" fill="none" stroke="#40635b" stroke-miterlimit="10" stroke-width="1"/>
      </g>
      <g id="Group_246" data-name="Group 246">
        <g id="Group_244" data-name="Group 244">
          <rect id="Rectangle_851" data-name="Rectangle 851" width="31.932" height="27.831" transform="translate(239.58 93.912)" fill="#94c8e3"/>
          <path id="Path_1198" data-name="Path 1198" d="M276.834,109.732H234.258V81.038h0a78.407,78.407,0,0,1,42.576,0h0Z" fill="#4c649e"/>
        </g>
        <path id="Path_1199" data-name="Path 1199" d="M236.944,82.78s14.647,5.566,36.912,0" fill="none" stroke="#94c8e3" stroke-linecap="round" stroke-miterlimit="10" stroke-width="1"/>
        <g id="Group_245" data-name="Group 245">
          <path id="Path_1200" data-name="Path 1200" d="M236.955,87.928s-.748,13.3,1.051,19.065" fill="none" stroke="#94c8e3" stroke-linecap="round" stroke-miterlimit="10" stroke-width="1"/>
          <path id="Path_1201" data-name="Path 1201" d="M242.694,89.009s-.224,16.142.893,17.984" fill="none" stroke="#94c8e3" stroke-linecap="round" stroke-miterlimit="10" stroke-width="1"/>
          <path id="Path_1202" data-name="Path 1202" d="M249.167,90.041s-.645,11.073,1.017,15.966" fill="none" stroke="#94c8e3" stroke-linecap="round" stroke-miterlimit="10" stroke-width="1"/>
          <path id="Path_1203" data-name="Path 1203" d="M273.352,87.928s.749,13.3-1.05,19.065" fill="none" stroke="#94c8e3" stroke-linecap="round" stroke-miterlimit="10" stroke-width="1"/>
          <path id="Path_1204" data-name="Path 1204" d="M267.614,89.009s.223,16.142-.893,17.984" fill="none" stroke="#94c8e3" stroke-linecap="round" stroke-miterlimit="10" stroke-width="1"/>
          <path id="Path_1205" data-name="Path 1205" d="M261.14,90.041s.645,11.073-1.017,15.966" fill="none" stroke="#94c8e3" stroke-linecap="round" stroke-miterlimit="10" stroke-width="1"/>
          <path id="Path_1206" data-name="Path 1206" d="M255.247,90.041s.149,13.964-.3,15.966" fill="none" stroke="#94c8e3" stroke-linecap="round" stroke-miterlimit="10" stroke-width="1"/>
        </g>
      </g>
      <ellipse id="Ellipse_79" data-name="Ellipse 79" cx="124.792" cy="2.526" rx="124.792" ry="2.526" transform="translate(136.861 403.698)" fill="#344c82" opacity="0.11"/>
      <g id="Group_248" data-name="Group 248">
        <circle id="Ellipse_80" data-name="Ellipse 80" cx="128.218" cy="128.218" r="128.218" transform="translate(129.797 133.081)" fill="#f3f8fa"/>
        <circle id="Ellipse_81" data-name="Ellipse 81" cx="48.387" cy="48.387" r="48.387" transform="translate(237.933 158.483)" fill="#fff"/>
        <path id="Path_1207" data-name="Path 1207" d="M144.4,338.964s-22.674,65.329-15.786,67.2S184.7,366.671,184.7,366.671Z" fill="#4c649e"/>
        <path id="Path_1208" data-name="Path 1208" d="M370.806,338.964s22.673,65.329,15.786,67.2-56.083-39.492-56.083-39.492Z" fill="#4c649e"/>
        <path id="Path_1209" data-name="Path 1209" d="M258.014,117.676A143.623,143.623,0,1,0,401.637,261.3,143.623,143.623,0,0,0,258.014,117.676Zm0,271.841A128.218,128.218,0,1,1,386.232,261.3,128.218,128.218,0,0,1,258.014,389.517Z" fill="#4c649e"/>
        <path id="Path_1210" data-name="Path 1210" d="M253.019,267.34h8.511L257.274,191.8Z" fill="#94c8e3" opacity="0.23" style="mix-blend-mode: multiply;isolation: isolate"/>
        <path id="Path_1211" data-name="Path 1211" d="M251.759,265.608h8.511l-4.255-75.535Z" fill="#94c8e3"/>
        <path id="Path_1212" data-name="Path 1212" d="M253.278,265.155l6.44,5.565,62.166-78.449Z" fill="#94c8e3" opacity="0.23" style="mix-blend-mode: multiply;isolation: isolate"/>
        <path id="Path_1213" data-name="Path 1213" d="M252.018,263.423l6.44,5.565,62.166-78.449Z" fill="#94c8e3"/>
        <circle id="Ellipse_82" data-name="Ellipse 82" cx="10.639" cy="10.639" r="10.639" transform="translate(245.375 252.689)" fill="#94c8e3" opacity="0.23" style="mix-blend-mode: multiply;isolation: isolate"/>
        <circle id="Ellipse_83" data-name="Ellipse 83" cx="10.639" cy="10.639" r="10.639" transform="translate(245.375 256.729)" fill="#94c8e3" opacity="0.23" style="mix-blend-mode: multiply;isolation: isolate"/>
        <circle id="Ellipse_84" data-name="Ellipse 84" cx="10.639" cy="10.639" r="10.639" transform="translate(245.375 254.969)" fill="#94c8e3"/>
        <path id="Path_1214" data-name="Path 1214" d="M251.27,268.842a5.14,5.14,0,0,0,6.12,3.42c3.178-.9,4.653-5.5,2.7-8.1a5.072,5.072,0,0,0-5.94-1.44A5.127,5.127,0,0,0,251.27,268.842Z" fill="#94c8e3" opacity="0.23" style="mix-blend-mode: multiply;isolation: isolate"/>
        <g id="Group_247" data-name="Group 247">
          <line id="Line_56" data-name="Line 56" y2="12.256" transform="translate(258.014 139.751)" fill="none" stroke="#94c8e3" stroke-miterlimit="10" stroke-width="3"/>
          <line id="Line_57" data-name="Line 57" x2="6.128" y2="10.614" transform="translate(197.24 156.036)" fill="none" stroke="#94c8e3" stroke-miterlimit="10" stroke-width="3"/>
          <line id="Line_58" data-name="Line 58" x2="10.614" y2="6.128" transform="translate(152.751 200.525)" fill="none" stroke="#94c8e3" stroke-miterlimit="10" stroke-width="3"/>
          <line id="Line_59" data-name="Line 59" x2="12.256" transform="translate(136.467 261.299)" fill="none" stroke="#94c8e3" stroke-miterlimit="10" stroke-width="3"/>
          <line id="Line_60" data-name="Line 60" y1="6.128" x2="10.614" transform="translate(152.751 315.945)" fill="none" stroke="#94c8e3" stroke-miterlimit="10" stroke-width="3"/>
          <line id="Line_61" data-name="Line 61" y1="10.614" x2="6.128" transform="translate(197.24 355.948)" fill="none" stroke="#94c8e3" stroke-miterlimit="10" stroke-width="3"/>
          <line id="Line_62" data-name="Line 62" y1="12.256" transform="translate(258.014 370.591)" fill="none" stroke="#94c8e3" stroke-miterlimit="10" stroke-width="3"/>
          <line id="Line_63" data-name="Line 63" x1="6.128" y1="10.614" transform="translate(312.66 355.948)" fill="none" stroke="#94c8e3" stroke-miterlimit="10" stroke-width="3"/>
          <line id="Line_64" data-name="Line 64" x1="10.614" y1="6.128" transform="translate(352.664 315.945)" fill="none" stroke="#94c8e3" stroke-miterlimit="10" stroke-width="3"/>
          <line id="Line_65" data-name="Line 65" x1="12.256" transform="translate(367.306 261.299)" fill="none" stroke="#94c8e3" stroke-miterlimit="10" stroke-width="3"/>
          <line id="Line_66" data-name="Line 66" x1="10.614" y2="6.128" transform="translate(352.664 200.525)" fill="none" stroke="#94c8e3" stroke-miterlimit="10" stroke-width="3"/>
          <line id="Line_67" data-name="Line 67" x1="6.128" y2="10.614" transform="translate(312.66 156.036)" fill="none" stroke="#94c8e3" stroke-miterlimit="10" stroke-width="3"/>
        </g>
        <path id="Path_1215" data-name="Path 1215" d="M258.014,139.736A128.218,128.218,0,0,1,386.184,264.5c.029-1.063.048-2.128.048-3.2a128.218,128.218,0,1,0-256.436,0c0,1.069.02,2.134.048,3.2A128.218,128.218,0,0,1,258.014,139.736Z" fill="#94c8e3" opacity="0.23" style="mix-blend-mode: multiply;isolation: isolate"/>
        <path id="Path_1216" data-name="Path 1216" d="M251.27,267.131a5.14,5.14,0,0,0,6.12,3.42c3.178-.9,4.653-5.5,2.7-8.1a5.072,5.072,0,0,0-5.94-1.44A5.127,5.127,0,0,0,251.27,267.131Z" fill="#4c649e"/>
        <path id="Path_1217" data-name="Path 1217" d="M286.32,124.314s60.371,9.454,90.116,66.225" fill="none" stroke="#94c8e3" stroke-linecap="round" stroke-miterlimit="10" stroke-width="1"/>
        <path id="Path_1218" data-name="Path 1218" d="M255.83,395.451s-61.085,1.643-100.625-48.8" fill="none" stroke="#94c8e3" stroke-linecap="round" stroke-miterlimit="10" stroke-width="1"/>
      </g>
      <g id="Group_256" data-name="Group 256">
        <g id="Group_249" data-name="Group 249">
          <path id="Path_1219" data-name="Path 1219" d="M300.882,215.451c.372.362.5.309.741.668.773,1.148,3.3,2.056,4.744,2.6,2.487,1.989,6.457,5.977,7.341,2.075.783-3.455,1.429-5.181.812-7.209-.037-.2-1.512-1.138-1.635-1.367a62.275,62.275,0,0,0-3.749-6.448c-2.048-2.874-4.736-1.258-4.3-.4.136.266,4.926,2.339,4.013,1.765a5.561,5.561,0,0,0-2.227-2.267c-2.453-1.82-5.137.143-3.058,1.47a20.858,20.858,0,0,0,2.172.346.4.4,0,0,1,.23.133c.045.07-1-.659-1.578-1.017-2.579-1.612-4.317.884-3.584,1.864.27.361,2.2-.212,2.514.1.276.273-2.044-1.425-2.783-.887-1.882,1.371-1.294,4.922-.759,5.8l1.913-1.8c-.09-.14.748,1.207,1.059,1.893.329.952.285.842-.132.5" fill="#edbda3"/>
          <path id="Path_1220" data-name="Path 1220" d="M300.882,206.765a3.31,3.31,0,0,1,2.743,1.423l.994,1.5" fill="none" stroke="#cc8972" stroke-linecap="round" stroke-miterlimit="10" stroke-width="0.5"/>
          <path id="Path_1221" data-name="Path 1221" d="M302.915,205.274s1.561.467,2.188.754,1.7,2.043,1.7,2.043" fill="none" stroke="#cc8972" stroke-linecap="round" stroke-miterlimit="10" stroke-width="0.5"/>
          <path id="Path_1222" data-name="Path 1222" d="M305.3,204.221s1.781.981,2.085,1.053,1.092,1.6,1.092,1.6" fill="none" stroke="#cc8972" stroke-linecap="round" stroke-miterlimit="10" stroke-width="0.5"/>
        </g>
        <path id="Path_1223" data-name="Path 1223" d="M417.812,440.922c0,1.395-17.346,2.527-38.743,2.527s-38.743-1.132-38.743-2.527,17.346-2.526,38.743-2.526S417.812,439.527,417.812,440.922Z" fill="#344c82" opacity="0.11"/>
        <path id="Path_1224" data-name="Path 1224" d="M400.729,328.209c-.2,1.781-.773,4.35-1.189,6.4-.538,2.654-1.889,2.577-1.791,1.491.036-.4.823-6.633.916-7.015.082-.335-.316-.292-.462,1.048,0,.005-.376,1.592-.645,3.008-.655,3.445-1.892,2.682-1.9,1.766,0-.338.452-5.841.459-6.174,0-.148-.141-2.516-.225-3.181-.249-1.119-.449-1.269-.6-.684-.333,2.741-.925,4.483-1.72,3.974-.652-.418-.171-3.308-.09-5.307a11.984,11.984,0,0,1,1.839-4.976c.958-2.668,2.652-6.754,5.144-4.208a18.217,18.217,0,0,1,4.165,7.262,4.643,4.643,0,0,1,.152.923,40.181,40.181,0,0,1-.12,5.7c-.212,3.135-1.294,3.929-1.363,3.078-.022-.265.28-5.2-.144-4.335-.059,1.764-.69,3.88-.927,5.924-.314,2.7-1.607,2.485-1.6,1.394,0-.4.479-5.336.49-5.732,0-.074.023-.572-.2-.6C400.817,327.948,400.745,328.084,400.729,328.209Z" fill="#edbda3"/>
        <path id="Path_1225" data-name="Path 1225" d="M313.215,213.572l25.841,21.592L335.9,233.45l24.435,5.847L357.631,258.7l-24.948-11.8-2.016-.482-1.139-1.231-22.875-24.712Z" fill="#fcc858"/>
        <path id="Path_1226" data-name="Path 1226" d="M387.073,305.3s8.626,35.684,10.663,65.992c0,0-7.83,6.566-15.177,7.611,0,0-12.713-28.255-22.477-55.339Z" fill="#233561"/>
        <path id="Path_1227" data-name="Path 1227" d="M379.069,312.988s-8.038,35.384-21.048,65.482c0,0-8.93,1.44-15.979-.906,0,0,2.661-43.6,7.218-74.12Z" fill="#233561"/>
        <path id="Path_1228" data-name="Path 1228" d="M362.966,236.635c2-1.308,1.209-5.88,1.033-8.334l11.847-9.091c.047.31.053,9.806.1,10.123.679,4.379,8.287,9.178,9.058,9.61,4.635,2.6-2.089,26.165-25.586,13.23-.1-.052-.2-.11-.3-.171C354.416,249.339,358.938,239.275,362.966,236.635Z" fill="#edbda3"/>
        <path id="Path_1229" data-name="Path 1229" d="M347.082,260.025c.106-2.017.881-14.313,8.17-19.395a53.957,53.957,0,0,1,7.714-4c.476,1.425.9,4,5.2,4.064,9.1.146,11.5-5.82,11.5-5.82,5.957,4.684,7.8,4.068,9.573,5.613,5.631,4.908,9.556,7.216,2.3,25.86l-4.587,21.788,2.294,19.494c-20.456,9.712-33.51,9.309-40.673.218C348.572,307.852,345.935,281.812,347.082,260.025Z" fill="#fcc858"/>
        <path id="Path_1230" data-name="Path 1230" d="M373.442,241.67l-6.859,7.505-4.3-7.389Z" fill="#fff"/>
        <path id="Path_1231" data-name="Path 1231" d="M369.959,242.1s-2.459,3.957-6.084-.489l3.367-.974Z" fill="#233561"/>
        <g id="Group_250" data-name="Group 250">
          <path id="Path_1232" data-name="Path 1232" d="M403.709,319.021c.031-.151.069-.34.11-.547Z" fill="#fcc858"/>
          <path id="Path_1233" data-name="Path 1233" d="M403.645,319.341c0,.015,0,.017,0,0Z" fill="#fcc858"/>
          <path id="Path_1234" data-name="Path 1234" d="M403.645,319.341l.028-.137Z" fill="#fcc858"/>
          <path id="Path_1235" data-name="Path 1235" d="M403.819,318.474l.067-.335Z" fill="#fcc858"/>
          <path id="Path_1236" data-name="Path 1236" d="M403.673,319.2l.036-.183Z" fill="#fcc858"/>
          <path id="Path_1237" data-name="Path 1237" d="M403.886,318.139c.014-.072.029-.144.043-.216C403.915,318,403.9,318.072,403.886,318.139Z" fill="#fcc858"/>
          <path id="Path_1238" data-name="Path 1238" d="M408.87,281.04c-2.555-6.431-6.495-20.852-11.535-31.883-4.654-10.186-18.086-16.888-13.258,5.283,1.507,6.922,6.954,21.306,11.692,30.08l-.832,32.471c2.253.184,9.215-.183,9.215-.183C405.3,311.074,408.87,281.04,408.87,281.04Z" fill="#fcc858"/>
          <path id="Path_1239" data-name="Path 1239" d="M404.125,316.945l-.044.217Z" fill="#fcc858"/>
          <path id="Path_1240" data-name="Path 1240" d="M403.929,317.923c.037-.185.077-.383.122-.611C404.015,317.492,403.973,317.7,403.929,317.923Z" fill="#fcc858"/>
          <path id="Path_1241" data-name="Path 1241" d="M404.152,316.808l-.027.137Z" fill="#fcc858"/>
        </g>
        <path id="Path_1242" data-name="Path 1242" d="M394.516,317.024s7.125-.527,10-1.15c0,0,.624,2.9-.5,3.945s-8.067,1.472-8.922.555C394.319,319.544,394.516,317.024,394.516,317.024Z" fill="#f2f2f2"/>
        <path id="Path_1243" data-name="Path 1243" d="M395.668,318.986a.446.446,0,1,0-.237-.584A.445.445,0,0,0,395.668,318.986Z" fill="#fcc858"/>
        <path id="Path_1244" data-name="Path 1244" d="M316.167,214.559s-5.774,6.2-7.769,9.062c0,0-2.884-2.02-2.748-3.833s5.83-7.786,7.314-7.678C314.306,212.208,316.167,214.559,316.167,214.559Z" fill="#f2f2f2"/>
        <path id="Path_1245" data-name="Path 1245" d="M307.869,219.8a.528.528,0,1,0,.677.316A.528.528,0,0,0,307.869,219.8Z" fill="#fcc858"/>
        <path id="Path_1246" data-name="Path 1246" d="M370.129,348.97l-4.959-9.893-7.439-3.926" fill="none" stroke="#0d1017" stroke-linecap="round" stroke-miterlimit="10" stroke-width="1"/>
        <g id="Group_251" data-name="Group 251">
          <path id="Path_1247" data-name="Path 1247" d="M409.926,416.137l-27.558-37.6,10.785-13.917s9.627,7.954,13.091,15.914c6.942,15.955,11.067,24.609,13.491,29.3C416.917,412.311,413.389,414.918,409.926,416.137Z" fill="#233561"/>
          <path id="Path_1248" data-name="Path 1248" d="M414.692,422.641l-4.766-6.5c3.463-1.219,6.991-3.826,9.809-6.3,2.75,5.324,3.31,5.55,3.31,5.55S421.253,420.442,414.692,422.641Z" fill="#edbda3"/>
        </g>
        <g id="Group_252" data-name="Group 252">
          <path id="Path_1249" data-name="Path 1249" d="M337.324,425.711l5.122-50.466,16-2.012s.824,20.78-1.9,29.024c-3.953,11.975-6.225,19.74-7.525,24.773A52.2,52.2,0,0,1,337.324,425.711Z" fill="#233561"/>
          <path id="Path_1250" data-name="Path 1250" d="M347.474,434.145a10.677,10.677,0,0,1-11.079.716l.929-9.15a52.2,52.2,0,0,0,11.7,1.319C347.424,433.845,347.474,434.145,347.474,434.145Z" fill="#edbda3"/>
        </g>
        <g id="Group_253" data-name="Group 253">
          <path id="Path_1251" data-name="Path 1251" d="M363.685,202.89s-4.533,2.714-4.4,7.725a72.134,72.134,0,0,1-1.53,7.689c-.787,7.949,4.094,13.242,5.979,13.31a14.7,14.7,0,0,0,10.49-4.241c4.129-3.937,6.607-17.328,3.376-21.729C373.256,199.73,365.887,200.24,363.685,202.89Z" fill="#edbda3"/>
          <path id="Path_1252" data-name="Path 1252" d="M357.711,221.194s1.224.729,3.788-.082c1.629-.516,4.056-2.229,4.577-1.145,2.366,4.925,2.275,10.922-1.963,11.654S357.119,222.98,357.711,221.194Z" fill="#233561"/>
          <path id="Path_1253" data-name="Path 1253" d="M375.484,218.337c-.137-1.016-.708-6.729-.359-7.89a2.038,2.038,0,0,0-.917-.21,3.921,3.921,0,0,1-3.643-3.772h0a41.021,41.021,0,0,1-7.774-.684c-5.05-.993-3.726-6.733-3.626-6.758,1.339-.34,12.158-2.043,18.323,1.976,6.052,3.945,3.133,13.6,2.592,15.215a.353.353,0,0,1-.329.24l-3.893,2.2A.364.364,0,0,1,375.484,218.337Z" fill="#233561"/>
          <path id="Path_1254" data-name="Path 1254" d="M379.874,203.476s4.789,2.674,1.013,11.936C380.887,215.412,377.774,212.356,379.874,203.476Z" fill="#233561"/>
          <path id="Path_1255" data-name="Path 1255" d="M360.03,211.459a25.021,25.021,0,0,1-4.622,6.32c-.914.837,1.844,3.577,3.05,3.7C361.134,221.745,360.03,211.459,360.03,211.459Z" fill="#edbda3"/>
          <path id="Path_1256" data-name="Path 1256" d="M380.439,219.7c-1.238,2.167-3.486,3.112-5.019,2.111s-1.772-3.569-.533-5.736,3.487-3.112,5.02-2.11S381.679,217.533,380.439,219.7Z" fill="#edbda3"/>
          <path id="Path_1257" data-name="Path 1257" d="M374.4,225s-1.785,5.971-9.342,6.263" fill="none" stroke="#cc8972" stroke-linecap="round" stroke-miterlimit="10" stroke-width="0.5"/>
          <path id="Path_1258" data-name="Path 1258" d="M364.113,221.923a4.213,4.213,0,0,1-4.041,1.831" fill="none" stroke="#edbda3" stroke-linecap="round" stroke-miterlimit="10" stroke-width="0.5"/>
          <path id="Path_1259" data-name="Path 1259" d="M361.612,214.672c-.026.427.185.787.47.8s.536-.316.561-.743-.185-.787-.47-.8S361.637,214.245,361.612,214.672Z" fill="#233561"/>
          <path id="Path_1260" data-name="Path 1260" d="M379.108,215.218a2.1,2.1,0,0,0-2.6,1.617s1.579.617.841,1.354-.907.75-.907.75a1.928,1.928,0,0,0,.571,1.545" fill="none" stroke="#cc8972" stroke-linecap="round" stroke-linejoin="round" stroke-width="0.5"/>
          <path id="Path_1261" data-name="Path 1261" d="M364.484,212.748c.234-.3.111-1.245-1.141-1.825a1.829,1.829,0,0,0-1.423-.079.528.528,0,0,0-.2.612c.15.389.734.248,1.475.755.532.363.321.453.85.62A.407.407,0,0,0,364.484,212.748Z" fill="#233561"/>
        </g>
        <g id="Group_254" data-name="Group 254">
          <path id="Path_1262" data-name="Path 1262" d="M376.775,231.489s-4.21,7.162-9.533,9.148a64.191,64.191,0,0,1,5.891,3.4s7.285-6.917,7.754-8.233A5.764,5.764,0,0,0,376.775,231.489Z" fill="#fff"/>
        </g>
        <path id="Path_1263" data-name="Path 1263" d="M364.03,235l-.746,2.614,3.958,3.019s-3.185,1.411-4.642,2.3a8.124,8.124,0,0,1-1.727-5.06A4.62,4.62,0,0,1,364.03,235Z" fill="#fff"/>
        <path id="Path_1264" data-name="Path 1264" d="M377.337,202.639s-2.52-3.983-15.142-6.236C362.2,196.4,360.1,202.377,377.337,202.639Z" fill="#233561"/>
        <path id="Path_1265" data-name="Path 1265" d="M379.02,202.312s-2.379-3.248-9.95-5.408C369.07,196.9,368.506,201.083,379.02,202.312Z" fill="#233561"/>
        <path id="Path_1266" data-name="Path 1266" d="M377.934,203.161s-.011-1.75,2.445-3.64C380.379,199.521,381.688,201.673,377.934,203.161Z" fill="#233561"/>
        <path id="Path_1267" data-name="Path 1267" d="M377.891,202.909s1.249-1.225,4.316-.774C382.207,202.135,381.57,204.572,377.891,202.909Z" fill="#233561"/>
        <path id="Path_1268" data-name="Path 1268" d="M360.178,214.676c0,1.6.976,2.892,2.18,2.892s2.181-1.295,2.181-2.892-.976-2.892-2.181-2.892S360.178,213.078,360.178,214.676Z" fill="none" stroke="#f2f2f2" stroke-miterlimit="10" stroke-width="0.366"/>
        <path id="Path_1269" data-name="Path 1269" d="M360.243,213.929a1.217,1.217,0,0,0-1.4-.7" fill="none" stroke="#f2f2f2" stroke-miterlimit="10" stroke-width="0.366"/>
        <path id="Path_1270" data-name="Path 1270" d="M366.262,220.514s2.121,2.461,1.978,4.678C368.24,225.192,365.976,222.832,366.262,220.514Z" fill="#233561"/>
        <path id="Path_1271" data-name="Path 1271" d="M358.839,221.645s2.838-3.107,4.982-1.859C363.821,219.786,361.053,223.22,358.839,221.645Z" fill="#233561"/>
        <path id="Path_1272" data-name="Path 1272" d="M366.792,222.058s1.948,2.979.964,5.06C367.756,227.118,365.58,224.193,366.792,222.058Z" fill="#233561"/>
        <path id="Path_1273" data-name="Path 1273" d="M366.944,242.939l3.015,2.542-3.377,3.695-2.525-4.342Z" fill="#233561"/>
        <path id="Path_1274" data-name="Path 1274" d="M334.059,435.064l.008-.005c1.949-.907,1.228-3.881,3.607-2.2,1.526,1.077,2.331,3.012,3.918,3.225a10.745,10.745,0,0,0,5.882-1.935h0l.387-.025s1.705,3,1.216,8.892a.675.675,0,0,1-.629.613l-6.159.351c-5.838-1.983-4.487,1.7-20.981-.318a.667.667,0,0,1-.585-.548C320.464,441.428,320.666,435.929,334.059,435.064Z" fill="#233561"/>
        <path id="Path_1275" data-name="Path 1275" d="M411.893,423.414l0-.009c.988-1.91-1.4-3.822,1.506-3.949,1.866-.082,3.686.957,5.072.155a10.746,10.746,0,0,0,3.471-5.128h0l.292-.257s3.186,1.334,6.4,6.292a.675.675,0,0,1-.123.869l-4.659,4.045c-5.832,2-2.508,4.09-16.8,12.579a.666.666,0,0,1-.8-.075C405.028,436.763,401.826,432.288,411.893,423.414Z" fill="#233561"/>
        <line id="Line_68" data-name="Line 68" x2="10.893" y2="0.71" transform="translate(364.434 214.703)" fill="none" stroke="#f2f2f2" stroke-miterlimit="10" stroke-width="0.366"/>
        <g id="Group_255" data-name="Group 255">
          <line id="Line_69" data-name="Line 69" x1="3.56" y1="11.246" transform="translate(386.394 260.675)" fill="none" stroke="#b58c40" stroke-linecap="round" stroke-miterlimit="10" stroke-width="0.75"/>
          <path id="Path_1276" data-name="Path 1276" d="M349.814,247.7a18.336,18.336,0,0,0-1.968,6.371" fill="none" stroke="#b58c40" stroke-linecap="round" stroke-miterlimit="10" stroke-width="0.75"/>
          <path id="Path_1277" data-name="Path 1277" d="M376.436,256.025s-9.452,28.255-16.364,28.495" fill="none" stroke="#b58c40" stroke-linecap="round" stroke-miterlimit="10" stroke-width="0.75"/>
          <path id="Path_1278" data-name="Path 1278" d="M352.664,268.988s2.667,29.86,9.621,34.456" fill="none" stroke="#b58c40" stroke-linecap="round" stroke-miterlimit="10" stroke-width="0.75"/>
          <path id="Path_1279" data-name="Path 1279" d="M384.12,287.64c-1.2,0-9.251,1.2-6.186,1.92" fill="none" stroke="#b58c40" stroke-linecap="round" stroke-miterlimit="10" stroke-width="0.75"/>
          <path id="Path_1280" data-name="Path 1280" d="M383.319,288.6s-4.593,2.97-2.5,3.51" fill="none" stroke="#b58c40" stroke-linecap="round" stroke-miterlimit="10" stroke-width="0.75"/>
        </g>
      </g>
      <g id="Group_257" data-name="Group 257">
        <path id="Path_1281" data-name="Path 1281" d="M131.777,201.036c-1.57.1-2.976.154-4.249.194a142.892,142.892,0,0,0-13.035,54.942c.946,1.18,1.561,1.889,1.561,1.889a70.044,70.044,0,0,0,13.558-29.933c2.643-14.517,12.275-11.03,20.407-10.8,13.585.378,16.487-4.463,6.809-13.9C146.956,193.808,144.285,200.258,131.777,201.036Z" fill="#4c649e" opacity="0.23" style="mix-blend-mode: multiply;isolation: isolate"/>
        <path id="Path_1282" data-name="Path 1282" d="M116.054,252.383s-14.994-17.265-11.839-24.63.284-16.272,6.575-24.865,8.479-6.754,20.987-7.531,15.179-7.227,25.051,2.393c9.678,9.432,6.776,14.273-6.809,13.9-8.132-.226-17.764-3.713-20.407,10.8A70.052,70.052,0,0,1,116.054,252.383Z" fill="#7fc991"/>
        <path id="Path_1283" data-name="Path 1283" d="M96.668,242.087c4.414-2.5.668-14.761-6.5-21.267-4.95-4.5-10.019-.7-17.216-6.543-5.083-4.126-4.806-7.845-8.83-8.723-4.756-1.037-6.6,3.838-14.164,5.364-7.285,1.468-9.084-2.344-13.591-.492-8.265,3.4-14.126,21.109-9.07,26.525,3.093,3.314,10.685-6.683,18.914-3.266,4.1,1.7,3.995,4.787,8.091,5.826,5.739,1.454,8.658-3.909,14.687-4.927C80.642,232.618,91.734,244.886,96.668,242.087Z" fill="#7fc991"/>
        <path id="Path_1284" data-name="Path 1284" d="M126.309,324.58c-4.338-23.656-14.17-62.714-25.51-79.524-18.346-27.2-42.212-28.076-42.212-28.076" fill="none" stroke="#40635b" stroke-miterlimit="10" stroke-width="1"/>
        <path id="Path_1285" data-name="Path 1285" d="M128.713,324.258c-16.391-93.791-20.623-107.727-12.186-114.327" fill="none" stroke="#40635b" stroke-miterlimit="10" stroke-width="1"/>
        <path id="Path_1286" data-name="Path 1286" d="M115.647,289.088s1.47-19.041-4.415-22.219-8.63-10.491-17.2-12.844-9.049-.015-17.63,5.969-13.675,3.152-15.136,14.565c-1.432,11.19,2.977,12.849,11.663,5.551,5.2-4.368,9.687-11.647,18.949-3.527A57.786,57.786,0,0,0,115.647,289.088Z" fill="#7fc991"/>
        <path id="Path_1287" data-name="Path 1287" d="M123.809,324.884c-2.86-20.71-9.413-48.3-24.366-59.99" fill="none" stroke="#40635b" stroke-miterlimit="10" stroke-width="1"/>
      </g>
      <g id="Group_265" data-name="Group 265">
        <ellipse id="Ellipse_85" data-name="Ellipse 85" cx="86.631" cy="13.207" rx="86.631" ry="13.207" transform="translate(42.767 420.397)" fill="#344c82" opacity="0.11"/>
        <g id="Group_264" data-name="Group 264">
          <path id="Path_1288" data-name="Path 1288" d="M54.523,297.284,42.767,430.711H71.25Z" fill="#abbac2"/>
          <path id="Path_1289" data-name="Path 1289" d="M56.3,322.62S60.51,435.828,67.514,439.876s129.7,8.641,157.248-15.845c0,0-10.451-15.9-12.978-29.729s-8.373-81.918-8.373-81.918Z" fill="#fff"/>
          <g id="Group_260" data-name="Group 260">
            <g id="Group_259" data-name="Group 259">
              <g id="Group_258" data-name="Group 258">
                <path id="Path_1290" data-name="Path 1290" d="M106.079,356.584l-22.541,3.056-1.674-23.872,23.446-1.644Z" fill="none" stroke="#ccc" stroke-miterlimit="10" stroke-width="0.5"/>
                <path id="Path_1291" data-name="Path 1291" d="M136.229,355.946l-23.446,1.644-1.788-25.5,23.56-.012Z" fill="none" stroke="#ccc" stroke-miterlimit="10" stroke-width="0.5"/>
                <path id="Path_1292" data-name="Path 1292" d="M164.557,352.309l-22.529,3.23-1.674-23.872,23.446-1.644Z" fill="none" stroke="#ccc" stroke-miterlimit="10" stroke-width="0.5"/>
                <path id="Path_1293" data-name="Path 1293" d="M109.3,391.013l-23.531.433-1.674-23.872,23.446-1.644Z" fill="none" stroke="#ccc" stroke-miterlimit="10" stroke-width="0.5"/>
                <path id="Path_1294" data-name="Path 1294" d="M138.459,387.752l-23.324,3.377-1.8-25.605,23.361-2.86Z" fill="none" stroke="#ccc" stroke-miterlimit="10" stroke-width="0.5"/>
                <path id="Path_1295" data-name="Path 1295" d="M167.825,387.435l-23.567-.09-1.674-23.872,23.446-1.644Z" fill="none" stroke="#ccc" stroke-miterlimit="10" stroke-width="0.5"/>
                <path id="Path_1296" data-name="Path 1296" d="M111.444,421.608,88,423.251l-1.73-24.673,23.5-.843Z" fill="none" stroke="#ccc" stroke-miterlimit="10" stroke-width="0.5"/>
                <rect id="Rectangle_852" data-name="Rectangle 852" width="23.503" height="23.931" transform="translate(168.923 329.665) rotate(-4.011)" fill="none" stroke="#ccc" stroke-miterlimit="10" stroke-width="0.5"/>
                <rect id="Rectangle_853" data-name="Rectangle 853" width="23.503" height="23.931" transform="matrix(0.998, -0.07, 0.07, 0.998, 171.153, 361.47)" fill="none" stroke="#ccc" stroke-miterlimit="10" stroke-width="0.5"/>
                <path id="Path_1297" data-name="Path 1297" d="M198.5,415.5l-23.446,1.644-.817-25.437,22.589-.079Z" fill="none" stroke="#ccc" stroke-miterlimit="10" stroke-width="0.5"/>
                <path id="Path_1298" data-name="Path 1298" d="M140.689,419.557l-24.751-.656-.369-21.572,23.446-1.644Z" fill="none" stroke="#ccc" stroke-miterlimit="10" stroke-width="0.5"/>
              </g>
              <path id="Path_1299" data-name="Path 1299" d="M169.934,417.507l-23.446,1.644-1.674-23.872,23.39-2.445Z" fill="none" stroke="#ccc" stroke-miterlimit="10" stroke-width="0.5"/>
            </g>
            <path id="Path_1300" data-name="Path 1300" d="M201.634,287.048,54.523,297.284,56.3,322.62l147.112-10.236ZM82.017,312.3a4.205,4.205,0,1,1,3.9-4.489A4.2,4.2,0,0,1,82.017,312.3Zm25.05-1.756a4.205,4.205,0,1,1,3.9-4.489A4.205,4.205,0,0,1,107.067,310.546Zm25.05-1.756a4.206,4.206,0,1,1,3.9-4.49A4.205,4.205,0,0,1,132.117,308.79Zm25.05-1.757a4.205,4.205,0,1,1,3.9-4.489A4.2,4.2,0,0,1,157.167,307.033Zm25.05-1.756a4.205,4.205,0,1,1,3.9-4.489A4.205,4.205,0,0,1,182.217,305.277Z" fill="#fcc858"/>
          </g>
          <g id="Group_261" data-name="Group 261">
            <line id="Line_70" data-name="Line 70" x1="9.385" y2="10.8" transform="translate(118.976 339.432)" fill="none" stroke="#4d4d4d" stroke-miterlimit="10" stroke-width="2"/>
            <line id="Line_71" data-name="Line 71" x1="10.8" y1="9.385" transform="translate(118.269 340.14)" fill="none" stroke="#4d4d4d" stroke-miterlimit="10" stroke-width="2"/>
          </g>
          <g id="Group_262" data-name="Group 262">
            <line id="Line_72" data-name="Line 72" x1="9.385" y2="10.8" transform="translate(152.739 400.592)" fill="none" stroke="#4d4d4d" stroke-miterlimit="10" stroke-width="2"/>
            <line id="Line_73" data-name="Line 73" x1="10.8" y1="9.385" transform="translate(152.031 401.3)" fill="none" stroke="#4d4d4d" stroke-miterlimit="10" stroke-width="2"/>
          </g>
          <g id="Group_263" data-name="Group 263">
            <line id="Line_74" data-name="Line 74" x1="9.385" y2="10.8" transform="translate(91.962 373.288)" fill="none" stroke="#94c8e3" stroke-miterlimit="10" stroke-width="2"/>
            <line id="Line_75" data-name="Line 75" x1="10.8" y1="9.385" transform="translate(91.254 373.996)" fill="none" stroke="#94c8e3" stroke-miterlimit="10" stroke-width="2"/>
          </g>
          <path id="Path_1301" data-name="Path 1301" d="M201.525,430.711s10.852-6.229,12.03-16.267" fill="none" stroke="#ccc" stroke-miterlimit="10" stroke-width="1"/>
          <path id="Path_1302" data-name="Path 1302" d="M60.472,326.209s3.064,94.562,13.788,106.817" fill="none" stroke="#ccc" stroke-miterlimit="10" stroke-width="1"/>
          <path id="Path_1303" data-name="Path 1303" d="M56.3,322.62l5.705-.4-1.532-23.1-5.949-1.836Z" fill="#b58c40"/>
          <path id="Path_1304" data-name="Path 1304" d="M67.366,296.383s7.772-13.8,16.728-5.256c7.868,7.506,0,16.98-6.148,18.825" fill="none" stroke="#4d4d4d" stroke-miterlimit="10" stroke-width="2"/>
          <path id="Path_1305" data-name="Path 1305" d="M92.551,294.116s7.773-13.8,16.729-5.257c7.867,7.506,0,16.981-6.149,18.825" fill="none" stroke="#4d4d4d" stroke-miterlimit="10" stroke-width="2"/>
          <path id="Path_1306" data-name="Path 1306" d="M117.919,292.962s7.135-12.67,15.356-4.826c7.222,6.89,0,15.588-5.644,17.281" fill="none" stroke="#4d4d4d" stroke-miterlimit="10" stroke-width="2"/>
          <path id="Path_1307" data-name="Path 1307" d="M142.779,290.755s7.1-12.607,15.282-4.8c7.186,6.857,0,15.512-5.617,17.2" fill="none" stroke="#4d4d4d" stroke-miterlimit="10" stroke-width="2"/>
          <path id="Path_1308" data-name="Path 1308" d="M169.107,288.737s6.957-12.354,14.974-4.7c7.042,6.719,0,15.2-5.5,16.85" fill="none" stroke="#4d4d4d" stroke-miterlimit="10" stroke-width="2"/>
          <path id="Path_1309" data-name="Path 1309" d="M119.675,375.572c-.421,5.536,3.022,10.181,7.18,10.994,5.679,1.11,11.765-5.108,10.769-10.882-.792-4.586-6.042-8.83-10.657-7.291-4.084,1.361-6.739,6.941-4.487,12.227" fill="none" stroke="#fcc858" stroke-miterlimit="10" stroke-width="1"/>
          <path id="Path_1310" data-name="Path 1310" d="M186.35,331.818c-5.473-.932-10.416,2.067-11.61,6.132-1.631,5.552,4,12.187,9.838,11.729,4.64-.364,9.351-5.2,8.246-9.936-.978-4.193-6.287-7.353-11.76-5.6" fill="none" stroke="#fcc858" stroke-miterlimit="10" stroke-width="1"/>
          <path id="Path_1311" data-name="Path 1311" d="M125.075,377.383l3.054,2.883s4.228-6.041,5.566-6.978" fill="none" stroke="#fcc858" stroke-miterlimit="10" stroke-width="1"/>
        </g>
      </g>
      <path id="Path_1312" data-name="Path 1312" d="M318.5,148.222q3.93,2.106,7.691,4.475a99,99,0,0,0,15.706-7.985A143.144,143.144,0,0,0,303.67,125.09C309.028,133.792,314.675,142.747,318.5,148.222Z" fill="#4c649e" opacity="0.23" style="mix-blend-mode: multiply;isolation: isolate"/>
      <g id="Group_267" data-name="Group 267">
        <path id="Path_1313" data-name="Path 1313" d="M298.389,102.52s31.093,52.5,34.211,53.251,40.259-17.259,41.869-33.292c0,0-7.253-5.751-11.642-11.836s-24.058-37.114-24.058-37.114Z" fill="#fff"/>
        <path id="Path_1314" data-name="Path 1314" d="M369.426,129.437a14.247,14.247,0,0,0-.768-9.621" fill="none" stroke="#abbac2" stroke-miterlimit="10" stroke-width="1"/>
        <g id="Group_266" data-name="Group 266">
          <path id="Path_1315" data-name="Path 1315" d="M308.582,106.434S330.429,93.239,337.792,86" fill="none" stroke="#abbac2" stroke-miterlimit="10" stroke-width="1"/>
          <path id="Path_1316" data-name="Path 1316" d="M312.779,111.973s21.848-13.195,29.211-20.437" fill="none" stroke="#abbac2" stroke-miterlimit="10" stroke-width="1"/>
          <path id="Path_1317" data-name="Path 1317" d="M316.977,117.512s21.847-13.195,29.21-20.437" fill="none" stroke="#abbac2" stroke-miterlimit="10" stroke-width="1"/>
          <path id="Path_1318" data-name="Path 1318" d="M321.175,123.051s21.847-13.195,29.21-20.437" fill="none" stroke="#abbac2" stroke-miterlimit="10" stroke-width="1"/>
          <path id="Path_1319" data-name="Path 1319" d="M325.372,128.589s21.848-13.194,29.21-20.436" fill="none" stroke="#abbac2" stroke-miterlimit="10" stroke-width="1"/>
          <path id="Path_1320" data-name="Path 1320" d="M329.57,134.128s21.847-13.2,29.21-20.437" fill="none" stroke="#abbac2" stroke-miterlimit="10" stroke-width="1"/>
          <path id="Path_1321" data-name="Path 1321" d="M333.768,139.667s21.847-13.2,29.21-20.437" fill="none" stroke="#abbac2" stroke-miterlimit="10" stroke-width="1"/>
        </g>
      </g>
    </g>
  </g>
</svg>
